<?xml version="1.0" encoding="UTF-8"?>
<!DOCTYPE svg PUBLIC "-//W3C//DTD SVG 1.1//EN" "http://www.w3.org/Graphics/SVG/1.1/DTD/svg11.dtd">
<!-- Creator: CorelDRAW 2018 (64-Bit) -->
<svg xmlns="http://www.w3.org/2000/svg" xml:space="preserve" width="400px" height="449px" version="1.1" style="shape-rendering:geometricPrecision; text-rendering:geometricPrecision; image-rendering:optimizeQuality; fill-rule:evenodd; clip-rule:evenodd"
viewBox="0 0 36332 40732"
 xmlns:xlink="http://www.w3.org/1999/xlink">
 <defs>
  <style type="text/css">
   <![CDATA[
    .fil23 {fill:#212121;fill-rule:nonzero}
    .fil24 {fill:#2E2E2E;fill-rule:nonzero}
    .fil8 {fill:#455A64;fill-rule:nonzero}
    .fil4 {fill:#504C4B;fill-rule:nonzero}
    .fil9 {fill:#5C4239;fill-rule:nonzero}
    .fil21 {fill:#607D8B;fill-rule:nonzero}
    .fil22 {fill:dimgray;fill-rule:nonzero}
    .fil3 {fill:#757575;fill-rule:nonzero}
    .fil14 {fill:#BDBDBD;fill-rule:nonzero}
    .fil16 {fill:#C3A447;fill-rule:nonzero}
    .fil5 {fill:#CFD8DC;fill-rule:nonzero}
    .fil18 {fill:#D9B54E;fill-rule:nonzero}
    .fil1 {fill:#E2ECF0;fill-rule:nonzero}
    .fil11 {fill:#E4EAED;fill-rule:nonzero}
    .fil2 {fill:#E94C4D;fill-rule:nonzero}
    .fil25 {fill:#E9F5FA;fill-rule:nonzero}
    .fil17 {fill:#EBB000;fill-rule:nonzero}
    .fil13 {fill:#F18A67;fill-rule:nonzero}
    .fil7 {fill:#F5B099;fill-rule:nonzero}
    .fil12 {fill:#F8F8F9;fill-rule:nonzero}
    .fil6 {fill:#FAD3C7;fill-rule:nonzero}
    .fil15 {fill:#FCFBFB;fill-rule:nonzero}
    .fil19 {fill:#FFC107;fill-rule:nonzero}
    .fil20 {fill:#FFCD38;fill-rule:nonzero}
    .fil10 {fill:#FFEC59;fill-rule:nonzero}
    .fil0 {fill:white;fill-rule:nonzero}
   ]]>
  </style>
 </defs>
 <g id="Слой_x0020_1">
  <metadata id="CorelCorpID_0Corel-Layer"/>
  <g id="window">
   <polygon class="fil0" points="8566,1623 8566,17049 29554,29167 29554,13741 "/>
   <polygon class="fil1" points="29554,13741 8566,1623 8566,0 29554,12118 "/>
   <polygon class="fil2" points="10267,2605 8566,1623 8566,0 10267,982 "/>
   <path class="fil3" d="M16364 13546c0,1970 -1198,2876 -2675,2023 -1477,-853 -2675,-3142 -2675,-5111 0,-1970 1198,-2876 2675,-2023 1477,853 2675,3142 2675,5111z"/>
   <path class="fil4" d="M13756 15440c0,65 -39,94 -88,66 -49,-28 -88,-103 -88,-167 0,-65 39,-95 88,-67 49,28 88,103 88,168z"/>
   <path class="fil5" d="M13167 15074c0,42 -3,82 -7,120 -232,-196 -452,-425 -658,-680 -176,-217 -340,-453 -491,-703 121,-108 296,-119 491,-6 224,129 423,392 543,688 73,179 117,370 121,552 1,10 1,20 1,29z"/>
   <path class="fil5" d="M14834 15151l0 736c-206,12 -426,-19 -657,-96 -120,-39 -242,-91 -367,-156 -37,-19 -74,-39 -111,-60l-10 -6c-19,-11 -37,-22 -56,-33 -37,-23 -75,-46 -112,-71 -123,-81 -243,-172 -361,-271 -232,-196 -452,-425 -658,-680l0 -709 2332 1346z"/>
   <path class="fil5" d="M15343 15761c-157,73 -328,117 -509,126 -206,12 -426,-19 -657,-96 -5,-46 -8,-92 -8,-138 0,-9 0,-19 1,-29 4,-176 48,-316 121,-411 120,-158 318,-192 543,-62 204,118 387,346 509,610z"/>
   <polygon class="fil6" points="13963,15171 13373,14830 13373,13477 13963,13817 "/>
   <path class="fil7" d="M13373 14079c94,87 193,161 295,220 102,59 200,98 295,120l0 -577 -590 -340 0 577z"/>
   <path class="fil6" d="M14571 12780c0,199 121,429 270,515 149,86 269,-5 269,-203 0,-199 -120,-430 -269,-516 -149,-86 -270,6 -270,204z"/>
   <path class="fil7" d="M14690 12849c0,111 67,240 151,288 83,48 150,-3 150,-114 0,-111 -67,-240 -150,-288 -84,-48 -151,3 -151,114z"/>
   <path class="fil6" d="M12765 11738c0,198 -121,289 -270,203 -149,-86 -269,-316 -269,-515 0,-198 120,-290 269,-204 149,86 270,317 270,516z"/>
   <path class="fil7" d="M12646 11669c0,111 -67,162 -151,114 -83,-48 -150,-177 -150,-288 0,-111 67,-162 150,-114 84,48 151,177 151,288z"/>
   <path class="fil6" d="M13668 10395l0 0c-648,-374 -1173,23 -1173,886l0 602c0,863 525,1867 1173,2240 648,374 1173,-23 1173,-886l0 -602c0,-864 -525,-1867 -1173,-2240z"/>
   <path class="fil8" d="M13267 11944c0,111 -68,162 -151,114 -83,-48 -150,-177 -150,-288 0,-111 67,-162 150,-114 83,48 151,177 151,288z"/>
   <path class="fil8" d="M14370 12581c0,111 -67,161 -151,114 -83,-49 -150,-177 -150,-288 0,-111 67,-162 150,-114 84,48 151,177 151,288z"/>
   <path class="fil9" d="M13239 11411l-245 -141c-43,-25 -77,2 -77,59 0,57 34,123 77,148l245 141c43,25 77,-1 77,-59 0,-57 -34,-123 -77,-148z"/>
   <path class="fil9" d="M14342 12048l-245 -141c-43,-25 -77,1 -77,59 0,57 34,123 77,148l245 141c43,25 77,-1 77,-59 0,-57 -34,-123 -77,-148z"/>
   <path class="fil10" d="M13866 9799c-463,-268 -856,-75 -983,414 -32,-31 -64,-58 -103,-80 -198,-90 -362,16 -382,245 3,210 4,334 197,480 128,52 296,-3 358,-158 20,42 343,681 1303,898 500,196 564,724 644,823 18,-199 53,-377 53,-597 -1,-756 -520,-1698 -1087,-2025z"/>
   <path class="fil11" d="M13810 15082l0 553c-37,-19 -74,-39 -111,-60l-10 -6c-19,-11 -37,-22 -56,-33 -37,-23 -75,-46 -112,-71l0 -549 289 166z"/>
   <path class="fil12" d="M13045 14078l0 979 621 -62 -300 -848 -1 0c-111,-39 -218,-62 -320,-69z"/>
   <path class="fil12" d="M14291 14798l0 978 -621 -778 300 -502 1 1c111,89 218,190 320,301z"/>
   <path class="fil3" d="M13666 15108c-32,-19 -58,1 -58,44 0,43 26,93 58,111 32,19 58,-1 58,-44 0,-43 -26,-92 -58,-111z"/>
   <path class="fil3" d="M13699 15575l-10 -6c-19,-11 -37,-22 -56,-33 9,-4 21,-2 33,5 12,7 24,19 33,34z"/>
   <path class="fil13" d="M13788 12785c0,-87 -53,-665 -118,-702 -65,-38 -118,479 -118,566 0,86 53,187 118,225 65,37 118,-2 118,-89z"/>
   <polygon class="fil3" points="19910,14495 17769,13258 17769,13913 19910,15150 "/>
   <polygon class="fil3" points="20508,15495 23553,17253 23553,16598 20508,14840 "/>
   <polygon class="fil3" points="24151,16943 24151,17598 27232,19377 27232,18722 "/>
   <polygon class="fil3" points="21018,16484 17769,14608 17769,15263 21018,17139 "/>
   <polygon class="fil3" points="21616,17484 23762,18723 23762,18068 21616,16830 "/>
   <polygon class="fil3" points="24361,19069 27232,20726 27232,20071 24361,18414 "/>
   <polygon class="fil14" points="24460,14567 17769,10704 17769,12471 24460,16334 "/>
   <polygon class="fil3" points="19201,16786 17769,15959 17769,16614 19201,17440 "/>
   <polygon class="fil3" points="19800,17786 25388,21013 25388,20358 19800,17132 "/>
   <polygon class="fil3" points="25988,21359 27232,22077 27232,21422 25988,20704 "/>
   <polygon class="fil3" points="17769,17963 22954,20957 22954,20302 17769,17308 "/>
   <polygon class="fil3" points="23553,21303 24460,21826 24460,21171 23553,20648 "/>
   <path class="fil15" d="M20731 5004l-333 -193 0 163 95 56c61,35 115,80 162,135 47,54 83,114 108,179 26,65 38,131 38,196 0,101 -28,167 -84,197 -56,30 -132,18 -227,-36l-279 -161 0 -1027 520 300 0 191zm-333 161l0 292 95 55c38,21 68,25 90,9 22,-15 33,-45 33,-90 0,-42 -11,-82 -33,-120 -22,-39 -52,-69 -91,-92l-94 -54zm941 -1l185 107 0 1027 -185 -107 0 -648 -277 488 -185 -107 0 -1027 185 107 0 648 277 -488zm950 1083c0,100 -14,181 -41,242 -28,61 -68,98 -119,110 -51,12 -110,-1 -175,-39 -66,-38 -124,-92 -175,-161 -51,-70 -90,-150 -119,-241 -28,-91 -43,-186 -44,-284l0 -57c0,-101 13,-182 41,-243 28,-61 67,-97 119,-109 52,-12 111,1 176,39 66,37 124,92 175,163 51,70 91,152 119,245 29,93 43,189 43,288l0 47zm-189 -152c0,-102 -12,-187 -38,-255 -25,-68 -62,-115 -110,-143 -93,-54 -142,11 -147,195l-1 75c0,101 13,185 38,254 25,68 62,117 112,145 46,28 83,22 108,-17 25,-38 38,-107 38,-207l0 -47zm805 164l-335 -194 0 836 -186 -107 0 -1027 521 301 0 191zm270 642l0 350 -186 -107 0 -1027 308 177c59,34 111,79 156,134 45,55 80,116 105,184 25,67 37,135 37,202 0,100 -26,165 -80,194 -54,29 -128,16 -222,-38l-118 -69zm0 -190l122 70c36,21 63,24 82,11 19,-13 28,-41 28,-85 0,-48 -10,-92 -29,-131 -19,-40 -46,-70 -79,-90l-124 -71 0 296zm870 850l-254 -147 -44 167 -199 -115 283 -863 174 100 285 1191 -200 -115 -45 -218zm-210 -312l166 96 -83 -404 -83 308zm997 20c100,58 180,144 240,258 59,114 89,235 89,364 0,63 -8,116 -24,158 -15,43 -37,74 -66,94 -59,43 -139,36 -239,-22l0 129 -178 -104 0 -128c-102,-59 -182,-144 -242,-256 -59,-112 -89,-230 -89,-353 0,-66 8,-120 24,-164 16,-44 38,-77 66,-98 60,-45 141,-39 241,19l0 -130 178 103 0 130zm-185 92c-47,-27 -83,-27 -110,-1 -26,26 -39,76 -39,149 0,68 13,129 40,184 27,55 65,96 116,125l0 -453 -7 -4zm185 107l0 454 8 4c44,26 80,27 106,3 27,-23 40,-69 40,-139 0,-72 -13,-137 -39,-193 -26,-57 -64,-99 -115,-129zm872 216l186 108 0 1026 -186 -107 0 -647 -276 487 -186 -107 0 -1027 186 108 0 648 276 -489zm630 1391l0 -361 -106 -62 -130 286 -202 -116 158 -354c-68,-99 -103,-207 -103,-322 0,-102 25,-166 75,-192 50,-27 122,-13 217,41l278 161 0 1026 -187 -107zm-198 -801c0,53 8,95 24,128 16,32 43,59 80,81l94 55 0 -299 -93 -54c-37,-22 -64,-24 -80,-8 -17,16 -25,49 -25,97z"/>
  </g>
  <g id="email">
   <polygon class="fil16" points="32593,28414 32767,28313 30218,29285 30044,29386 "/>
   <polygon class="fil17" points="32593,28414 30057,24506 30044,29386 "/>
   <polygon class="fil18" points="33186,29328 33360,29227 32767,28313 32593,28414 "/>
   <polygon class="fil16" points="33782,29101 33956,29000 33360,29227 33186,29328 "/>
   <polygon class="fil19" points="32593,28414 30044,29386 36318,33009 33782,29101 33186,29328 "/>
   <polygon class="fil17" points="36332,28128 33782,29101 36318,33009 "/>
   <polygon class="fil20" points="30057,24506 32593,28414 33186,29328 33782,29101 36332,28128 "/>
  </g>
  <g id="message">
   <path class="fil2" d="M31891 20779l-17 -9c-1007,-574 -1823,-340 -1825,528 -2,450 216,981 565,1470 -94,175 -285,422 -570,295 10,9 202,165 463,316 283,164 636,310 873,210 160,131 328,250 502,351 574,331 1087,401 1425,241 260,-123 417,-381 418,-761 2,-872 -819,-2055 -1834,-2641z"/>
   <path class="fil0" d="M31175 21779c-88,-51 -159,-10 -160,91 0,101 71,224 159,275 88,50 159,10 159,-91 1,-101 -70,-224 -158,-275z"/>
   <path class="fil0" d="M32599 22601c-87,-50 -159,-10 -159,91 -1,101 70,224 158,275 88,51 160,10 160,-91 1,-101 -71,-224 -159,-275z"/>
   <path class="fil0" d="M31887 22190c-88,-50 -159,-10 -159,91 -1,101 70,224 158,275 88,51 159,10 160,-91 0,-101 -71,-224 -159,-275z"/>
   <path class="fil5" d="M34962 23047c116,67 210,229 210,362 -1,134 -95,187 -211,120 -116,-67 -210,-229 -209,-362 0,-134 94,-187 210,-120z"/>
   <path class="fil5" d="M34022 22504c116,67 210,229 209,362 0,134 -94,187 -210,120 -116,-67 -210,-229 -209,-362 0,-133 94,-187 210,-120z"/>
   <path class="fil8" d="M34021 22986c116,67 210,14 210,-120 1,-133 -93,-295 -209,-362 -116,-67 -210,-13 -210,120 -1,133 93,295 209,362zm940 543c116,67 210,14 211,-120 0,-133 -94,-295 -210,-362 -116,-67 -210,-14 -210,120 -1,133 93,295 209,362zm644 1525c115,353 351,937 708,1189 -13,-4 -254,-86 -580,-274 -354,-205 -794,-530 -1088,-996 -200,-66 -411,-161 -629,-287 -247,-143 -485,-314 -709,-505 260,-123 417,-381 418,-761 2,-872 -819,-2055 -1834,-2641l-17 -9c331,-556 1171,-602 2153,-35 1269,733 2295,2211 2292,3302 -1,562 -276,910 -714,1017z"/>
  </g>
  <g id="text">
   <path class="fil1" d="M35676 18938l0 -185 -4989 -2881 0 186 4989 2880zm7 -2399l0 -185 -4989 -2881 -1 186 4990 2880zm-9 3199l0 -185 -4989 -2881 -1 185 4990 2881zm4 -1599l1 -186 -4990 -2880 0 185 4989 2881zm2 -800l1 -185 -4990 -2881 0 185 4989 2881zm389 -1505c133,77 249,274 249,428l0 4300c-1,153 -130,217 -263,140l-4304 -2485 -1686 96 558 -748 -325 -187c-133,-77 -241,-264 -241,-418l0 -4312c1,-153 122,-215 255,-138l5757 3324z"/>
   <polygon class="fil21" points="35676,18753 35676,18938 30687,16058 30687,15872 "/>
   <polygon class="fil21" points="35679,17953 35678,18139 30689,15258 30689,15073 "/>
   <polygon class="fil21" points="35674,19553 35674,19738 30684,16857 30685,16672 "/>
   <polygon class="fil21" points="35681,17154 35680,17339 30691,14458 30691,14273 "/>
   <polygon class="fil21" points="35683,16354 35683,16539 30693,13659 30694,13473 "/>
  </g>
  <g id="phone">
   <path class="fil22" d="M31829 34334l-20748 -11978c-529,-305 -1328,-339 -1786,-74l-8986 5188c-458,264 -400,726 128,1031l20748 11979c529,305 1328,338 1786,74l8986 -5188c458,-265 400,-726 -128,-1032z"/>
   <path class="fil23" d="M22150 27590l-11069 -6390c-529,-305 -1328,-339 -1786,-74l-8000 4618 -1295 -722 0 1734c-3,204 145,420 437,589l20748 11979c277,159 627,244 965,251l0 -11985z"/>
   <path class="fil24" d="M31011 32706l-8861 -5116 0 11985c307,6 603,-51 821,-177l8986 -5188c210,-122 312,-285 309,-455l0 -1740 -1255 691z"/>
   <path class="fil3" d="M31829 31447l-20748 -11979c-529,-305 -1328,-338 -1786,-74l-8986 5188c-458,264 -400,726 128,1031l20748 11979c529,305 1328,338 1786,74l8986 -5188c458,-264 400,-726 -128,-1031z"/>
   <polygon class="fil25" points="10979,20424 2092,25554 20404,36126 29290,30996 "/>
   <polygon class="fil0" points="29290,30996 20403,36126 6019,27821 2092,25554 10979,20424 14504,22458 "/>
   <polygon class="fil19" points="14905,22690 6019,27821 2092,25554 10979,20424 "/>
   <path class="fil14" d="M26821 33932c-425,-245 -1066,-271 -1434,-59 -367,212 -321,583 103,828 424,245 1066,271 1434,59 367,-212 321,-583 -103,-828z"/>
   <path class="fil23" d="M6973 21736c-86,-50 -215,-55 -290,-12l-2339 1350c-74,43 -65,118 21,167 85,50 215,55 289,12l2339 -1350c75,-43 65,-118 -20,-167z"/>
   <polygon class="fil24" points="29290,30996 10979,20424 10979,20613 29123,31092 "/>
   <polygon class="fil23" points="2092,25554 2262,25652 10979,20613 10979,20424 "/>
   <polygon class="fil15" points="12600,22387 10605,23539 10974,23752 12969,22601 "/>
   <polygon class="fil15" points="11920,21995 9925,23146 10294,23360 12289,22208 "/>
   <polygon class="fil15" points="11239,21602 9244,22754 9613,22967 11608,21815 "/>
   <path class="fil15" d="M6675 25230c579,335 642,841 140,1131 -502,289 -1379,253 -1958,-82 -580,-334 -643,-840 -141,-1130 502,-290 1379,-254 1959,81z"/>
   <path class="fil4" d="M5827 25418c237,137 284,331 106,433 -178,103 -514,76 -750,-61 -236,-136 -284,-330 -106,-433 178,-102 514,-75 750,61z"/>
   <path class="fil4" d="M6155 25565c128,141 120,297 -42,390 -162,94 -431,98 -677,25 -85,126 -77,244 44,314 201,116 637,53 974,-142 337,-194 447,-446 246,-562 -121,-70 -327,-75 -545,-25z"/>
   <path class="fil5" d="M14905 23823c141,-81 369,-81 509,0l3111 1761c140,82 112,244 -30,326l-6993 4037c-141,81 -380,69 -520,-13l-3095 -1765c-140,-81 -140,-214 1,-295l7017 -4051z"/>
   <path class="fil14" d="M19319 26338c141,-81 369,-81 509,0l3091 1735c141,81 131,270 -10,352l-4043 2334c-141,81 -369,81 -509,0l-3083 -1792c-140,-81 -139,-213 2,-295l4043 -2334z"/>
   <path class="fil21" d="M13933 29369c141,-82 370,-82 510,0l3082 1791c141,82 140,214 -1,295l-1715 990c-141,81 -338,50 -489,-36l-3092 -1764c-140,-81 -150,-205 -9,-287l1714 -989z"/>
   <path class="fil8" d="M23730 28810c141,-81 370,-71 510,11l3113 1763c141,81 140,213 -1,295l-7058 4077c-141,82 -369,82 -510,0l-3103 -1771c-140,-81 -119,-234 23,-315l7026 -4060z"/>
  </g>
 </g>
</svg>
