<?xml version="1.0" encoding="UTF-8"?>
<!DOCTYPE svg PUBLIC "-//W3C//DTD SVG 1.1//EN" "http://www.w3.org/Graphics/SVG/1.1/DTD/svg11.dtd">
<!-- Creator: CorelDRAW X7 -->
<svg xmlns="http://www.w3.org/2000/svg" xml:space="preserve" width="400px" height="369px" version="1.1" shape-rendering="geometricPrecision" text-rendering="geometricPrecision" image-rendering="optimizeQuality" fill-rule="evenodd" clip-rule="evenodd"
viewBox="0 0 53577 49465"
 xmlns:xlink="http://www.w3.org/1999/xlink">
 <g id="Слой_x0020_1">
  <metadata id="CorelCorpID_0Corel-Layer"/>
  <g id="block-scheme">
   <polygon fill="#D0DBE5" fill-rule="nonzero" points="19051,38992 16586,40424 14105,38992 "/>
   <polygon fill="#ECEFF1" fill-rule="nonzero" points="19051,38992 16586,40424 14105,38992 7662,42736 18726,49124 27635,43947 "/>
   <polygon fill="#A8BDCC" fill-rule="nonzero" points="18726,49124 7662,42736 7661,43077 18725,49465 27633,44288 27635,43947 "/>
   <path fill="#E74B23" fill-rule="nonzero" d="M10855 42203l699 405 1788 -1032 663 385 -1789 1033 582 337 1788 -1032 724 421 -1789 1032 580 337 1788 -1032 708 411 -6 1061 -1418 819c-38,22 -38,56 -1,78l1326 770 -578 333 674 392 1477 -853 -673 -392 -767 443 -1261 -732 1353 -781 1947 1 6 -1129 1369 -790 1261 732 -672 388 673 391 672 -388 985 573 -672 388 673 391 1476 -853 -673 -391 -672 388 -984 -572 671 -388 -673 -391 -671 388 -1326 -771c-37,-21 -97,-21 -134,0l-1434 828 -1801 0 -723 -420 1770 -1022 -580 -337 -1770 1022 -724 -421 1770 -1022 -581 -338 -1770 1022 -663 -385 1770 -1022 -698 -406 -3690 2131z"/>
  </g>
  <g id="cpu">
   <polygon fill="#F8F9FC" fill-rule="nonzero" points="30986,34576 30986,34711 30879,34773 30879,34638 "/>
   <polygon fill="#9CB5CC" fill-rule="nonzero" points="30879,34638 30879,34773 29535,34000 29535,33865 "/>
   <polygon fill="#D7E7F7" fill-rule="nonzero" points="30986,34576 30879,34638 29535,33865 29641,33803 "/>
   <polygon fill="#F8F9FC" fill-rule="nonzero" points="29757,35293 29757,35429 29650,35491 29650,35355 "/>
   <polygon fill="#9CB5CC" fill-rule="nonzero" points="29650,35355 29650,35491 29154,35205 29154,35070 "/>
   <polygon fill="#F8F9FC" fill-rule="nonzero" points="29154,35070 29154,35205 28532,35568 28532,35433 "/>
   <polygon fill="#9CB5CC" fill-rule="nonzero" points="28532,35433 28532,35568 27684,35081 27684,34945 "/>
   <polygon fill="#D7E7F7" fill-rule="nonzero" points="29757,35293 29650,35355 29154,35070 28532,35433 27684,34945 27790,34883 28531,35309 29153,34946 "/>
   <polygon fill="#F8F9FC" fill-rule="nonzero" points="28545,36000 28545,36136 28438,36198 28439,36062 "/>
   <polygon fill="#9CB5CC" fill-rule="nonzero" points="28439,36062 28438,36198 27094,35425 27094,35289 "/>
   <polygon fill="#D7E7F7" fill-rule="nonzero" points="28545,36000 28439,36062 27094,35289 27200,35227 "/>
   <polygon fill="#9CB5CC" fill-rule="nonzero" points="27221,36073 27221,36209 26480,35783 26480,35647 "/>
   <polygon fill="#F8F9FC" fill-rule="nonzero" points="27435,36073 27435,36208 26813,36571 26813,36436 "/>
   <polygon fill="#9CB5CC" fill-rule="nonzero" points="27203,36783 27203,36919 26599,36572 26599,36436 "/>
   <polygon fill="#F8F9FC" fill-rule="nonzero" points="27310,36721 27310,36857 27203,36919 27203,36783 "/>
   <polygon fill="#D7E7F7" fill-rule="nonzero" points="27435,36073 26813,36436 27310,36721 27203,36783 26599,36436 27221,36073 26480,35647 26587,35585 "/>
   <polygon fill="#F8F9FC" fill-rule="nonzero" points="33043,34387 33043,34522 32604,34778 32604,34643 "/>
   <polygon fill="#9CB5CC" fill-rule="nonzero" points="32604,34643 32604,34778 32496,34717 32497,34581 "/>
   <polygon fill="#9CB5CC" fill-rule="nonzero" points="33671,34747 33670,34883 33043,34522 33043,34387 "/>
   <polygon fill="#F8F9FC" fill-rule="nonzero" points="34426,34306 34426,34442 33670,34883 33671,34747 "/>
   <polygon fill="#D7E7F7" fill-rule="nonzero" points="34426,34306 33671,34747 33043,34387 32604,34643 32497,34581 33042,34263 33670,34623 34319,34244 "/>
   <polygon fill="#F8F9FC" fill-rule="nonzero" points="35016,34645 35016,34781 33821,35478 33821,35343 "/>
   <polygon fill="#9CB5CC" fill-rule="nonzero" points="33821,35343 33821,35478 33714,35416 33714,35281 "/>
   <polygon fill="#D7E7F7" fill-rule="nonzero" points="35016,34645 33821,35343 33714,35281 34909,34583 "/>
   <polygon fill="#F8F9FC" fill-rule="nonzero" points="35618,34991 35618,35127 34888,35553 34888,35417 "/>
   <polygon fill="#9CB5CC" fill-rule="nonzero" points="35332,35795 35332,35930 34676,35553 34676,35418 "/>
   <polygon fill="#9CB5CC" fill-rule="nonzero" points="35080,36066 35080,36202 34972,36140 34972,36005 "/>
   <polygon fill="#F8F9FC" fill-rule="nonzero" points="35545,35795 35544,35931 35080,36202 35080,36066 "/>
   <polygon fill="#D7E7F7" fill-rule="nonzero" points="35618,34991 34888,35417 35545,35795 35080,36066 34972,36005 35332,35795 34676,35418 35512,34930 "/>
   <polygon fill="#F8F9FC" fill-rule="nonzero" points="37478,36061 37478,36196 36283,36894 36283,36758 "/>
   <polygon fill="#9CB5CC" fill-rule="nonzero" points="36283,36758 36283,36894 36176,36832 36176,36696 "/>
   <polygon fill="#D7E7F7" fill-rule="nonzero" points="37478,36061 36283,36758 36176,36696 37371,35999 "/>
   <polygon fill="#025A82" fill-rule="nonzero" points="33024,34774 33024,35316 32804,35444 32805,34902 "/>
   <polygon fill="#012234" fill-rule="nonzero" points="32805,34902 32804,35444 32084,35030 32084,34487 "/>
   <polygon fill="#024462" fill-rule="nonzero" points="33024,34774 32805,34902 32084,34487 32303,34359 "/>
   <polygon fill="#024462" fill-rule="nonzero" points="34254,35481 34035,35609 33315,35195 33534,35067 "/>
   <polygon fill="#012234" fill-rule="nonzero" points="34035,35609 34034,36151 33315,35737 33315,35195 "/>
   <polygon fill="#025A82" fill-rule="nonzero" points="34254,35481 34254,36023 34034,36151 34035,35609 "/>
   <polygon fill="#025A82" fill-rule="nonzero" points="35485,36188 35485,36731 35265,36859 35266,36316 "/>
   <polygon fill="#024462" fill-rule="nonzero" points="35485,36188 35266,36316 34546,35903 34765,35775 "/>
   <polygon fill="#012234" fill-rule="nonzero" points="35266,36316 35265,36859 34546,36445 34546,35903 "/>
   <polygon fill="#012234" fill-rule="nonzero" points="36497,37024 36496,37566 35777,37153 35777,36610 "/>
   <polygon fill="#025A82" fill-rule="nonzero" points="36716,36896 36716,37438 36496,37566 36497,37024 "/>
   <polygon fill="#024462" fill-rule="nonzero" points="36716,36896 36497,37024 35777,36610 35996,36482 "/>
   <polygon fill="#025A82" fill-rule="nonzero" points="30064,35201 30063,35743 29348,36160 29349,35618 "/>
   <polygon fill="#012234" fill-rule="nonzero" points="29349,35618 29348,36160 29127,36033 29128,35491 "/>
   <polygon fill="#024462" fill-rule="nonzero" points="30064,35201 29349,35618 29128,35491 29842,35074 "/>
   <polygon fill="#025A82" fill-rule="nonzero" points="28843,35913 28843,36456 28128,36873 28129,36330 "/>
   <polygon fill="#012234" fill-rule="nonzero" points="28129,36330 28128,36873 27907,36745 27907,36203 "/>
   <polygon fill="#024462" fill-rule="nonzero" points="28843,35913 28129,36330 27907,36203 28622,35786 "/>
   <polygon fill="#025A82" fill-rule="nonzero" points="27623,36626 27622,37168 26908,37585 26908,37043 "/>
   <polygon fill="#012234" fill-rule="nonzero" points="26908,37043 26908,37585 26687,37458 26687,36915 "/>
   <polygon fill="#024462" fill-rule="nonzero" points="27623,36626 26908,37043 26687,36915 27402,36498 "/>
   <polygon fill="#024462" fill-rule="nonzero" points="31283,34489 30569,34906 30348,34779 31062,34362 "/>
   <polygon fill="#012234" fill-rule="nonzero" points="30569,34906 30569,35448 30348,35321 30348,34779 "/>
   <polygon fill="#025A82" fill-rule="nonzero" points="31283,34489 31282,35032 30569,35448 30569,34906 "/>
   <polygon fill="#025A82" fill-rule="nonzero" points="31727,40187 31727,40927 32125,40695 32840,40278 33346,39982 34060,39565 34566,39270 35281,38853 35787,38558 36500,38141 36899,37908 36900,37168 "/>
   <polygon fill="#012234" fill-rule="nonzero" points="26510,37188 26510,37928 26911,38159 27632,38573 28142,38866 28862,39280 29154,39448 30093,39988 30604,40282 31324,40695 31727,40927 31727,40187 "/>
   <polygon fill="#024462" fill-rule="nonzero" points="36900,37168 36500,37402 35787,37818 35281,38113 34566,38530 34061,38825 33346,39242 32840,39538 32126,39955 31727,40187 31324,39956 30605,39542 30093,39248 29374,38834 28862,38540 28143,38127 27632,37833 26912,37419 26510,37188 26908,36955 27623,36538 28128,36243 28843,35826 29349,35531 30063,35114 30569,34819 31283,34402 31682,34169 32084,34400 32805,34814 33315,35108 34035,35521 34546,35815 35266,36229 35777,36523 36497,36937 "/>
   <polygon fill="#EBB512" fill-rule="nonzero" points="35834,37030 35833,37166 31722,39565 31722,39430 "/>
   <polygon fill="#CC9900" fill-rule="nonzero" points="31722,39430 31722,39565 27574,37181 27574,37045 "/>
   <polygon fill="#FFC107" fill-rule="nonzero" points="35834,37030 31722,39430 27574,37045 31685,34646 "/>
   <polygon fill="#F8F9FC" fill-rule="nonzero" points="32216,35418 32216,35554 31712,35848 31712,35712 "/>
   <polygon fill="#9CB5CC" fill-rule="nonzero" points="31712,35712 31712,35848 31204,35556 31204,35420 "/>
   <polygon fill="#D7E7F7" fill-rule="nonzero" points="32216,35418 31712,35712 31204,35420 31708,35126 "/>
   <polygon fill="#F8F9FC" fill-rule="nonzero" points="32912,35819 32912,35954 32409,36248 32409,36113 "/>
   <polygon fill="#9CB5CC" fill-rule="nonzero" points="32409,36113 32409,36248 31902,35957 31902,35821 "/>
   <polygon fill="#D7E7F7" fill-rule="nonzero" points="32912,35819 32409,36113 31902,35821 32405,35527 "/>
   <polygon fill="#F8F9FC" fill-rule="nonzero" points="33610,36220 33610,36355 33106,36649 33106,36514 "/>
   <polygon fill="#9CB5CC" fill-rule="nonzero" points="33106,36514 33106,36649 32598,36357 32598,36221 "/>
   <polygon fill="#D7E7F7" fill-rule="nonzero" points="33610,36220 33106,36514 32598,36221 33102,35928 "/>
   <polygon fill="#F8F9FC" fill-rule="nonzero" points="34307,36621 34307,36756 33803,37050 33804,36915 "/>
   <polygon fill="#9CB5CC" fill-rule="nonzero" points="33804,36915 33803,37050 33295,36758 33295,36622 "/>
   <polygon fill="#D7E7F7" fill-rule="nonzero" points="34307,36621 33804,36915 33295,36622 33799,36328 "/>
   <polygon fill="#F8F9FC" fill-rule="nonzero" points="35004,37021 35003,37156 34500,37450 34500,37315 "/>
   <polygon fill="#9CB5CC" fill-rule="nonzero" points="34500,37315 34500,37450 33991,37158 33992,37023 "/>
   <polygon fill="#D7E7F7" fill-rule="nonzero" points="35004,37021 34500,37315 33992,37023 34495,36729 "/>
   <polygon fill="#F8F9FC" fill-rule="nonzero" points="31516,35827 31516,35962 31013,36256 31013,36121 "/>
   <polygon fill="#9CB5CC" fill-rule="nonzero" points="31013,36121 31013,36256 30504,35964 30505,35829 "/>
   <polygon fill="#D7E7F7" fill-rule="nonzero" points="31516,35827 31013,36121 30505,35829 31008,35535 "/>
   <polygon fill="#F8F9FC" fill-rule="nonzero" points="32213,36227 32213,36363 31709,36657 31709,36521 "/>
   <polygon fill="#9CB5CC" fill-rule="nonzero" points="31709,36521 31709,36657 31202,36365 31202,36230 "/>
   <polygon fill="#D7E7F7" fill-rule="nonzero" points="32213,36227 31709,36521 31202,36230 31706,35936 "/>
   <polygon fill="#F8F9FC" fill-rule="nonzero" points="32910,36628 32910,36764 32406,37058 32406,36922 "/>
   <polygon fill="#9CB5CC" fill-rule="nonzero" points="32406,36922 32406,37058 31898,36766 31898,36630 "/>
   <polygon fill="#D7E7F7" fill-rule="nonzero" points="32910,36628 32406,36922 31898,36630 32402,36336 "/>
   <polygon fill="#F8F9FC" fill-rule="nonzero" points="33608,37029 33607,37164 33104,37458 33104,37323 "/>
   <polygon fill="#9CB5CC" fill-rule="nonzero" points="33104,37323 33104,37458 32595,37166 32596,37031 "/>
   <polygon fill="#D7E7F7" fill-rule="nonzero" points="33608,37029 33104,37323 32596,37031 33099,36737 "/>
   <polygon fill="#F8F9FC" fill-rule="nonzero" points="34304,37429 34304,37565 33800,37859 33800,37723 "/>
   <polygon fill="#9CB5CC" fill-rule="nonzero" points="33800,37723 33800,37859 33292,37567 33292,37431 "/>
   <polygon fill="#D7E7F7" fill-rule="nonzero" points="34304,37429 33800,37723 33292,37431 33796,37137 "/>
   <polygon fill="#F8F9FC" fill-rule="nonzero" points="30816,36236 30815,36371 30312,36666 30312,36530 "/>
   <polygon fill="#9CB5CC" fill-rule="nonzero" points="30312,36530 30312,36666 29804,36373 29804,36238 "/>
   <polygon fill="#D7E7F7" fill-rule="nonzero" points="30816,36236 30312,36530 29804,36238 30307,35944 "/>
   <polygon fill="#F8F9FC" fill-rule="nonzero" points="31512,36636 31512,36772 31008,37066 31008,36930 "/>
   <polygon fill="#9CB5CC" fill-rule="nonzero" points="31008,36930 31008,37066 30501,36774 30501,36639 "/>
   <polygon fill="#D7E7F7" fill-rule="nonzero" points="31512,36636 31008,36930 30501,36639 31005,36345 "/>
   <polygon fill="#F8F9FC" fill-rule="nonzero" points="32209,37037 32209,37173 31705,37467 31706,37331 "/>
   <polygon fill="#9CB5CC" fill-rule="nonzero" points="31706,37331 31705,37467 31197,37174 31197,37039 "/>
   <polygon fill="#D7E7F7" fill-rule="nonzero" points="32209,37037 31706,37331 31197,37039 31701,36745 "/>
   <polygon fill="#F8F9FC" fill-rule="nonzero" points="32907,37438 32906,37574 32403,37867 32403,37732 "/>
   <polygon fill="#9CB5CC" fill-rule="nonzero" points="32403,37732 32403,37867 31895,37575 31895,37440 "/>
   <polygon fill="#D7E7F7" fill-rule="nonzero" points="32907,37438 32403,37732 31895,37440 32399,37146 "/>
   <polygon fill="#F8F9FC" fill-rule="nonzero" points="33603,37838 33603,37974 33099,38268 33099,38132 "/>
   <polygon fill="#9CB5CC" fill-rule="nonzero" points="33099,38132 33099,38268 32591,37976 32591,37840 "/>
   <polygon fill="#D7E7F7" fill-rule="nonzero" points="33603,37838 33099,38132 32591,37840 33095,37546 "/>
   <polygon fill="#F8F9FC" fill-rule="nonzero" points="30116,36644 30116,36780 29612,37074 29612,36938 "/>
   <polygon fill="#9CB5CC" fill-rule="nonzero" points="29612,36938 29612,37074 29104,36782 29104,36646 "/>
   <polygon fill="#D7E7F7" fill-rule="nonzero" points="30116,36644 29612,36938 29104,36646 29608,36352 "/>
   <polygon fill="#F8F9FC" fill-rule="nonzero" points="30812,37045 30812,37180 30308,37474 30308,37339 "/>
   <polygon fill="#9CB5CC" fill-rule="nonzero" points="30308,37339 30308,37474 29801,37183 29801,37047 "/>
   <polygon fill="#D7E7F7" fill-rule="nonzero" points="30812,37045 30308,37339 29801,37047 30305,36753 "/>
   <polygon fill="#F8F9FC" fill-rule="nonzero" points="31509,37445 31509,37581 31006,37875 31006,37739 "/>
   <polygon fill="#9CB5CC" fill-rule="nonzero" points="31006,37739 31006,37875 30497,37583 30498,37447 "/>
   <polygon fill="#D7E7F7" fill-rule="nonzero" points="31509,37445 31006,37739 30498,37447 31001,37153 "/>
   <polygon fill="#F8F9FC" fill-rule="nonzero" points="32207,37846 32207,37982 31703,38276 31703,38140 "/>
   <polygon fill="#9CB5CC" fill-rule="nonzero" points="31703,38140 31703,38276 31195,37984 31195,37848 "/>
   <polygon fill="#D7E7F7" fill-rule="nonzero" points="32207,37846 31703,38140 31195,37848 31699,37554 "/>
   <polygon fill="#F8F9FC" fill-rule="nonzero" points="32903,38247 32903,38382 32399,38676 32399,38541 "/>
   <polygon fill="#9CB5CC" fill-rule="nonzero" points="32399,38541 32399,38676 31891,38384 31891,38249 "/>
   <polygon fill="#D7E7F7" fill-rule="nonzero" points="32903,38247 32399,38541 31891,38249 32395,37955 "/>
   <polygon fill="#F8F9FC" fill-rule="nonzero" points="29416,37053 29416,37188 28912,37482 28912,37347 "/>
   <polygon fill="#9CB5CC" fill-rule="nonzero" points="28912,37347 28912,37482 28404,37190 28404,37055 "/>
   <polygon fill="#D7E7F7" fill-rule="nonzero" points="29416,37053 28912,37347 28404,37055 28908,36761 "/>
   <polygon fill="#F8F9FC" fill-rule="nonzero" points="30112,37453 30112,37589 29608,37883 29608,37747 "/>
   <polygon fill="#9CB5CC" fill-rule="nonzero" points="29608,37747 29608,37883 29101,37591 29101,37455 "/>
   <polygon fill="#D7E7F7" fill-rule="nonzero" points="30112,37453 29608,37747 29101,37455 29605,37161 "/>
   <polygon fill="#F8F9FC" fill-rule="nonzero" points="30810,37854 30810,37989 30306,38283 30306,38148 "/>
   <polygon fill="#9CB5CC" fill-rule="nonzero" points="30306,38148 30306,38283 29798,37991 29798,37856 "/>
   <polygon fill="#D7E7F7" fill-rule="nonzero" points="30810,37854 30306,38148 29798,37856 30302,37562 "/>
   <polygon fill="#F8F9FC" fill-rule="nonzero" points="31507,38255 31507,38390 31003,38684 31003,38549 "/>
   <polygon fill="#9CB5CC" fill-rule="nonzero" points="31003,38549 31003,38684 30495,38392 30495,38257 "/>
   <polygon fill="#D7E7F7" fill-rule="nonzero" points="31507,38255 31003,38549 30495,38257 30999,37963 "/>
   <polygon fill="#F8F9FC" fill-rule="nonzero" points="32203,38655 32203,38791 31699,39085 31700,38949 "/>
   <polygon fill="#9CB5CC" fill-rule="nonzero" points="31700,38949 31699,39085 31191,38793 31191,38657 "/>
   <polygon fill="#D7E7F7" fill-rule="nonzero" points="32203,38655 31700,38949 31191,38657 31695,38363 "/>
   <polygon fill="#025A82" fill-rule="nonzero" points="27632,37920 27632,38463 27413,38591 27413,38048 "/>
   <polygon fill="#012234" fill-rule="nonzero" points="27413,38048 27413,38591 26692,38176 26693,37634 "/>
   <polygon fill="#024462" fill-rule="nonzero" points="27632,37920 27413,38048 26693,37634 26912,37506 "/>
   <polygon fill="#025A82" fill-rule="nonzero" points="28862,38628 28862,39170 28643,39298 28643,38755 "/>
   <polygon fill="#012234" fill-rule="nonzero" points="28643,38755 28643,39298 27923,38884 27924,38342 "/>
   <polygon fill="#024462" fill-rule="nonzero" points="28862,38628 28643,38755 27924,38342 28143,38214 "/>
   <polygon fill="#025A82" fill-rule="nonzero" points="31324,40043 31324,40585 31105,40713 31105,40171 "/>
   <polygon fill="#012234" fill-rule="nonzero" points="31105,40171 31105,40713 30385,40299 30386,39757 "/>
   <polygon fill="#024462" fill-rule="nonzero" points="31324,40043 31105,40171 30386,39757 30605,39629 "/>
   <polygon fill="#025A82" fill-rule="nonzero" points="30081,39323 30080,39865 29861,39993 29862,39451 "/>
   <polygon fill="#012234" fill-rule="nonzero" points="29862,39451 29861,39993 29142,39579 29142,39037 "/>
   <polygon fill="#024462" fill-rule="nonzero" points="30081,39323 29862,39451 29142,39037 29361,38909 "/>
   <polygon fill="#025A82" fill-rule="nonzero" points="36722,37616 36721,38158 36007,38575 36008,38032 "/>
   <polygon fill="#012234" fill-rule="nonzero" points="36008,38032 36007,38575 35787,38448 35787,37905 "/>
   <polygon fill="#024462" fill-rule="nonzero" points="36722,37616 36008,38032 35787,37905 36500,37489 "/>
   <polygon fill="#025A82" fill-rule="nonzero" points="35502,38328 35502,38870 34787,39287 34788,38744 "/>
   <polygon fill="#012234" fill-rule="nonzero" points="34788,38744 34787,39287 34566,39160 34566,38617 "/>
   <polygon fill="#024462" fill-rule="nonzero" points="35502,38328 34788,38744 34566,38617 35281,38200 "/>
   <polygon fill="#025A82" fill-rule="nonzero" points="34282,39040 34281,39582 33567,39999 33567,39457 "/>
   <polygon fill="#012234" fill-rule="nonzero" points="33567,39457 33567,39999 33346,39872 33346,39330 "/>
   <polygon fill="#024462" fill-rule="nonzero" points="34282,39040 33567,39457 33346,39330 34061,38913 "/>
   <polygon fill="#025A82" fill-rule="nonzero" points="33061,39752 33061,40294 32346,40711 32347,40169 "/>
   <polygon fill="#012234" fill-rule="nonzero" points="32347,40169 32346,40711 32125,40584 32126,40042 "/>
   <polygon fill="#024462" fill-rule="nonzero" points="33061,39752 32347,40169 32126,40042 32840,39625 "/>
   <path fill="#F8F9FC" fill-rule="nonzero" d="M29573 39539l0 135c-278,163 -585,341 -708,411l0 -135c123,-71 430,-249 708,-411z"/>
   <polygon fill="#F8F9FC" fill-rule="nonzero" points="29424,40271 29424,40407 29317,40469 29318,40333 "/>
   <polygon fill="#9CB5CC" fill-rule="nonzero" points="29318,40333 29317,40469 28651,40086 28651,39950 "/>
   <path fill="#D7E7F7" fill-rule="nonzero" d="M29573 39539c-278,162 -585,340 -708,411l559 321 -106 62 -667 -383 54 -31c6,-4 408,-236 761,-442l107 62z"/>
   <polygon fill="#F8F9FC" fill-rule="nonzero" points="30812,40251 30811,40386 30502,40567 30502,40432 "/>
   <polygon fill="#9CB5CC" fill-rule="nonzero" points="30675,40654 30675,40790 30288,40568 30288,40432 "/>
   <polygon fill="#9CB5CC" fill-rule="nonzero" points="30375,40954 30375,41089 30268,41027 30268,40892 "/>
   <polygon fill="#F8F9FC" fill-rule="nonzero" points="30889,40654 30888,40790 30375,41089 30375,40954 "/>
   <polygon fill="#D7E7F7" fill-rule="nonzero" points="30812,40251 30502,40432 30889,40654 30375,40954 30268,40892 30675,40654 30288,40432 30704,40189 "/>
   <polygon fill="#F8F9FC" fill-rule="nonzero" points="27098,38116 27098,38252 26286,38726 26286,38590 "/>
   <polygon fill="#9CB5CC" fill-rule="nonzero" points="26286,38590 26286,38726 26178,38664 26178,38529 "/>
   <polygon fill="#D7E7F7" fill-rule="nonzero" points="27098,38116 26286,38590 26178,38529 26991,38054 "/>
   <path fill="#F8F9FC" fill-rule="nonzero" d="M28286 38799l-1 135c-352,206 -750,441 -756,444l0 -135c6,-4 404,-238 757,-444z"/>
   <polygon fill="#F8F9FC" fill-rule="nonzero" points="27529,39243 27529,39378 27476,39410 27476,39275 "/>
   <polygon fill="#9CB5CC" fill-rule="nonzero" points="27476,39275 27476,39410 27089,39188 27089,39052 "/>
   <path fill="#D7E7F7" fill-rule="nonzero" d="M28286 38799c-353,206 -751,440 -757,444l-53 32 -387 -223 107 -62 278 160c123,-71 427,-250 704,-413l108 62z"/>
   <polygon fill="#F8F9FC" fill-rule="nonzero" points="37447,37957 37447,38092 36797,38472 36797,38336 "/>
   <polygon fill="#9CB5CC" fill-rule="nonzero" points="36797,38336 36797,38472 36357,38219 36357,38083 "/>
   <polygon fill="#9CB5CC" fill-rule="nonzero" points="38183,38380 38183,38515 37447,38092 37447,37957 "/>
   <polygon fill="#F8F9FC" fill-rule="nonzero" points="38289,38318 38289,38453 38183,38515 38183,38380 "/>
   <polygon fill="#D7E7F7" fill-rule="nonzero" points="38289,38318 38183,38380 37447,37957 36797,38336 36357,38083 36462,38022 36795,38213 37446,37833 "/>
   <polygon fill="#F8F9FC" fill-rule="nonzero" points="36390,39426 36390,39561 36284,39624 36284,39488 "/>
   <polygon fill="#9CB5CC" fill-rule="nonzero" points="36284,39488 36284,39624 35108,38948 35108,38812 "/>
   <polygon fill="#D7E7F7" fill-rule="nonzero" points="36390,39426 36284,39488 35108,38812 35215,38750 "/>
   <path fill="#F8F9FC" fill-rule="nonzero" d="M34996 40115l0 136c-139,-79 -511,-291 -814,-465 -96,-55 -184,-106 -256,-148l0 -136c72,42 161,93 256,149 303,173 675,385 814,464z"/>
   <polygon fill="#9CB5CC" fill-rule="nonzero" points="34548,40501 34548,40637 34441,40575 34441,40439 "/>
   <polygon fill="#F8F9FC" fill-rule="nonzero" points="35210,40115 35210,40250 34548,40637 34548,40501 "/>
   <path fill="#D7E7F7" fill-rule="nonzero" d="M35210 40115l-662 386 -107 -62 555 -324c-139,-79 -511,-291 -814,-464 -95,-56 -184,-107 -256,-149l106 -62c71,41 158,91 252,145 376,217 865,495 872,499l54 31z"/>
   <polygon fill="#F8F9FC" fill-rule="nonzero" points="33975,40836 33975,40971 33868,41033 33868,40898 "/>
   <polygon fill="#9CB5CC" fill-rule="nonzero" points="33868,40898 33868,41033 32693,40357 32693,40222 "/>
   <polygon fill="#D7E7F7" fill-rule="nonzero" points="33975,40836 33868,40898 32693,40222 32799,40160 "/>
  </g>
  <g id="laptop">
   <path fill="#52B3AC" fill-rule="nonzero" d="M26429 2685c327,-189 597,-35 599,341l34 12246c1,377 -268,839 -595,1028l-19301 11144c-329,189 -598,37 -599,-338l-35 -12247c-1,-376 266,-840 595,-1030l19302 -11144z"/>
   <path fill="#A6B6BD" fill-rule="nonzero" d="M40801 24322l-4 43 -4 42 -9 37 -11 41 -15 34c-6,15 -12,30 -20,44l-18 31c-9,17 -20,32 -31,49l-24 29c-16,20 -33,40 -53,59l-28 28 -37 32c-14,12 -28,23 -44,34 -13,10 -28,20 -43,30 -22,16 -45,31 -70,46l-7581 4375 -1 -456 -1674 -974 2418 -1403 0 -181 157 91 3286 -1908 -4 -1146 -1537 -889 -354 204 -1 -409 -515 -298 -1022 -591 -1782 -1029 -444 258 -2 -516 -1538 -889 -345 199 -1 -399 -1536 -888 -1593 924 1 353 -305 -176 -1593 924 1 352 -305 -176 -1593 925 1 352 -305 -177 -1591 926 1 352 -306 -176 -1594 924 2 352 -304 -176 -1594 925 1 352 -304 -176 -1594 925 1 352 -304 -176 -1593 924 1 352 -303 -175 -1595 924 4 1146 891 516 -380 220 -1 -399 -1537 -888 -1593 925 3 1146 1536 889 346 -201 1 400 1536 889 346 -200 1 400 1538 888 342 -199 1 398 1539 889 353 -205 1 410 1537 889 3377 -1959 -1 -230 198 116 2490 -1446 0 -262 226 130 911 -528 1 440 1672 972 -6198 3579c-61,35 -128,65 -197,92 -19,8 -39,15 -58,22 -45,16 -91,29 -138,42 -41,11 -84,22 -126,31 -59,12 -119,23 -179,30l-36 5c-78,8 -157,12 -237,13l-37 1c-78,-1 -155,-6 -231,-14l-38 -3c-76,-9 -150,-22 -222,-38l-43 -10c-70,-18 -137,-38 -202,-62l-22 -8c-75,-28 -148,-62 -215,-101l-11562 -6720c-271,-157 -406,-363 -406,-569 1,381 2,764 3,1146 0,206 135,412 406,570l11563 6719c65,38 136,71 209,100l5 2 23 7c46,18 93,34 141,47 19,6 40,10 60,14 15,4 29,8 44,11l42 10c46,9 92,17 139,23l41 5 35 4c20,2 40,5 59,6 47,4 93,6 138,7l36 0 37 -1c23,0 47,1 71,-1 52,-1 103,-5 154,-10l13 -2 35 -5c43,-5 86,-10 128,-18 18,-3 34,-9 52,-12 41,-9 82,-19 123,-30 25,-7 51,-11 75,-19 24,-8 45,-17 67,-25 18,-6 37,-13 56,-21 69,-27 135,-56 197,-92l20102 -11606c17,-10 32,-18 47,-28l24 -17c16,-10 30,-21 44,-31l43 -35 36 -30 16 -14 15 -17c18,-19 36,-39 53,-58l14 -16 7 -11c13,-17 23,-33 33,-50l14 -23 4 -7c8,-16 14,-31 21,-47l11 -25 2 -6 12 -45 7 -28 1 -6 5 -44 3 -31 0 -9c-1,-382 -2,-765 -3,-1147z"/>
   <path fill="#CFD8DC" fill-rule="nonzero" d="M40397 23753l-11564 -6719c-543,-316 -1434,-315 -1981,0l-20102 11606c-548,316 -550,830 -6,1147l11562 6720c542,315 1434,316 1981,0l20103 -11606c545,-316 548,-833 7,-1148z"/>
   <polygon fill="#455A64" fill-rule="nonzero" points="27108,20701 28645,21588 27053,22514 25515,21624 "/>
   <polygon fill="#455A64" fill-rule="nonzero" points="29561,21457 31098,22346 29506,23271 27967,22382 "/>
   <polygon fill="#455A64" fill-rule="nonzero" points="31780,20287 33562,21316 34584,21907 35099,22205 32411,23766 30873,22877 31699,22397 29917,21366 "/>
   <polygon fill="#455A64" fill-rule="nonzero" points="27769,22497 29307,23387 27714,24311 26176,23422 "/>
   <polygon fill="#455A64" fill-rule="nonzero" points="35454,22410 36991,23299 33706,25206 32167,24317 "/>
   <polygon fill="#455A64" fill-rule="nonzero" points="32011,24408 33549,25297 31059,26741 29521,25852 "/>
   <polygon fill="#455A64" fill-rule="nonzero" points="27102,25065 28639,25954 27047,26879 25509,25990 "/>
   <polygon fill="#455A64" fill-rule="nonzero" points="27914,18052 29450,18940 27859,19866 26321,18976 "/>
   <polygon fill="#455A64" fill-rule="nonzero" points="26017,19153 27555,20041 25962,20967 24424,20077 "/>
   <polygon fill="#455A64" fill-rule="nonzero" points="29796,19140 31334,20029 28866,21461 27327,20573 "/>
   <polygon fill="#455A64" fill-rule="nonzero" points="24120,20253 25658,21142 24065,22065 22527,21178 "/>
   <polygon fill="#455A64" fill-rule="nonzero" points="22223,21353 23761,22243 22169,23167 20632,22279 "/>
   <polygon fill="#455A64" fill-rule="nonzero" points="25294,21752 26833,22641 25239,23565 23702,22677 "/>
   <polygon fill="#455A64" fill-rule="nonzero" points="20327,22455 21865,23344 20272,24268 18733,23379 "/>
   <polygon fill="#455A64" fill-rule="nonzero" points="23481,22805 25020,23694 23426,24618 21888,23729 "/>
   <polygon fill="#455A64" fill-rule="nonzero" points="30667,22996 32205,23885 30612,24810 29075,23920 "/>
   <polygon fill="#455A64" fill-rule="nonzero" points="18431,23555 19968,24445 18374,25370 16837,24480 "/>
   <polygon fill="#455A64" fill-rule="nonzero" points="25976,23538 27513,24426 25922,25351 24383,24463 "/>
   <polygon fill="#455A64" fill-rule="nonzero" points="21668,23857 23206,24746 21614,25671 20075,24782 "/>
   <polygon fill="#455A64" fill-rule="nonzero" points="28875,24036 30413,24925 28820,25850 27280,24961 "/>
   <polygon fill="#455A64" fill-rule="nonzero" points="24184,24577 25722,25467 24130,26391 22591,25502 "/>
   <polygon fill="#455A64" fill-rule="nonzero" points="16534,24656 18072,25546 16479,26469 14940,25581 "/>
   <polygon fill="#455A64" fill-rule="nonzero" points="19856,24909 21393,25798 19801,26723 18262,25834 "/>
   <polygon fill="#455A64" fill-rule="nonzero" points="22392,25618 23930,26507 22337,27432 20798,26543 "/>
   <polygon fill="#455A64" fill-rule="nonzero" points="14637,25757 16175,26647 14582,27571 13044,26681 "/>
   <polygon fill="#455A64" fill-rule="nonzero" points="18041,25962 19580,26850 17987,27775 16450,26886 "/>
   <polygon fill="#455A64" fill-rule="nonzero" points="25251,26140 26788,27029 25195,27954 23657,27065 "/>
   <polygon fill="#455A64" fill-rule="nonzero" points="20600,26657 22138,27547 20546,28471 19006,27583 "/>
   <polygon fill="#455A64" fill-rule="nonzero" points="12742,26858 14280,27746 12685,28672 11147,27782 "/>
   <polygon fill="#455A64" fill-rule="nonzero" points="16229,27013 17767,27903 16174,28828 14635,27938 "/>
   <polygon fill="#455A64" fill-rule="nonzero" points="23478,27168 25016,28058 23423,28982 21885,28093 "/>
   <polygon fill="#455A64" fill-rule="nonzero" points="18808,27698 20346,28588 18752,29512 17213,28622 "/>
   <polygon fill="#455A64" fill-rule="nonzero" points="21686,28209 23224,29098 21631,30022 20093,29133 "/>
   <polygon fill="#455A64" fill-rule="nonzero" points="10124,28377 11661,29265 10068,30190 8531,29302 "/>
   <polygon fill="#455A64" fill-rule="nonzero" points="17016,28739 18554,29627 16961,30552 15422,29663 "/>
   <polygon fill="#455A64" fill-rule="nonzero" points="29359,25948 30897,26837 23898,30898 22360,30009 "/>
   <polygon fill="#455A64" fill-rule="nonzero" points="19914,29238 21451,30126 19859,31052 18321,30162 "/>
   <polygon fill="#455A64" fill-rule="nonzero" points="14336,28113 15874,29002 11950,31279 10413,30390 "/>
   <polygon fill="#455A64" fill-rule="nonzero" points="30540,27502 32808,28820 27078,32128 24809,30810 "/>
   <polygon fill="#455A64" fill-rule="nonzero" points="15216,29784 16756,30672 13834,32366 12296,31478 "/>
   <polygon fill="#455A64" fill-rule="nonzero" points="22134,30141 23672,31029 21183,32475 19645,31585 "/>
   <polygon fill="#455A64" fill-rule="nonzero" points="18101,30289 19639,31178 15716,33455 14178,32566 "/>
   <polygon fill="#455A64" fill-rule="nonzero" points="19446,31700 20983,32589 17609,34549 16070,33660 "/>
   <path fill="#CFD8DC" fill-rule="nonzero" d="M27427 1305l-35 -21c-95,-55 -189,-109 -284,-164 -94,-55 -188,-110 -283,-165 -182,-105 -432,-91 -707,68l-20102 11606c-547,316 -992,1087 -990,1714l37 13374c1,312 112,533 291,636 236,137 472,275 708,412 -179,-104 -290,-324 -291,-637l-37 -13373c-3,-628 443,-1398 990,-1715l20103 -11606c274,-158 525,-173 706,-67 -36,-21 -71,-42 -106,-62z"/>
   <path fill="#E8EEF0" fill-rule="nonzero" d="M27062 15272l-34 -12246c-2,-376 -272,-530 -599,-341l-19302 11144c-329,190 -596,654 -595,1030l35 12247c1,375 270,527 599,338l19301 -11144c327,-189 596,-651 595,-1028zm-235 -13838c545,-315 995,-61 997,567l37 13374c2,628 -444,1400 -991,1716l-20102 11607c-548,315 -995,59 -997,-570l-37 -13373c-3,-628 443,-1398 990,-1715l20103 -11606z"/>
   <path fill="#F8F9FC" fill-rule="nonzero" d="M8831 16584l-3 -1083c0,-151 -58,-203 -196,-124l-299 173c-172,100 -206,262 -205,355l3 1084c0,201 122,166 216,111l276 -159c135,-78 209,-179 208,-357zm-109 -1681c384,-222 503,-19 504,295l3 1230c1,391 -187,694 -504,877l-468 270c-320,184 -522,112 -524,-283l-3 -1212c-1,-394 204,-722 524,-907l468 -270z"/>
   <path fill="#F8F9FC" fill-rule="nonzero" d="M16147 12361l-3 -1084c-1,-151 -58,-203 -196,-123l-300 173c-172,99 -202,260 -201,353l3 1083c0,202 118,168 216,112l276 -160c131,-75 205,-176 205,-354zm-110 -1682c384,-221 506,-20 507,293l4 1231c1,391 -191,695 -507,878l-468 270c-320,185 -523,112 -524,-283l-3 -1211c-2,-395 207,-724 523,-907l468 -271z"/>
   <path fill="#F8F9FC" fill-rule="nonzero" d="M11281 19004l-3 -1084c-1,-150 -58,-203 -196,-123l-300 173c-172,99 -205,258 -205,355l3 1084c1,197 122,166 216,111l276 -159c135,-78 209,-179 209,-357zm-110 -1681c384,-222 506,-21 507,293l4 1230c1,391 -191,696 -507,878l-468 271c-320,184 -523,108 -524,-283l-4 -1212c-1,-395 204,-722 524,-907l468 -270z"/>
   <path fill="#F8F9FC" fill-rule="nonzero" d="M11291 22832l-3 -1088c0,-151 -58,-199 -195,-119l-300 173c-172,99 -205,258 -205,351l3 1083c1,202 122,166 216,112l276 -159c135,-78 209,-175 208,-353zm-109 -1682c384,-221 506,-20 507,293l4 1227c1,391 -191,699 -507,882l-469 270c-319,185 -522,108 -523,-287l-4 -1211c-1,-391 204,-719 524,-903l468 -271z"/>
   <path fill="#F8F9FC" fill-rule="nonzero" d="M8853 24240l-3 -1088c0,-151 -58,-199 -196,-119l-300 173c-172,99 -205,258 -205,351l3 1083c1,201 122,166 217,112l276 -160c135,-77 209,-174 208,-352zm-109 -1682c384,-221 502,-19 503,295l4 1227c1,391 -187,697 -504,880l-468 270c-320,185 -523,108 -524,-287l-3 -1211c-1,-391 204,-719 524,-903l468 -271z"/>
   <path fill="#F8F9FC" fill-rule="nonzero" d="M18585 10953l-3 -1084c0,-151 -58,-203 -196,-123l-300 173c-171,99 -201,260 -201,353l3 1083c1,202 119,168 216,112l277 -159c131,-76 205,-177 204,-355zm-109 -1681c384,-222 506,-21 507,292l3 1231c1,391 -190,695 -507,878l-464 268c-324,187 -526,114 -528,-281l-3 -1211c-1,-395 207,-724 524,-907l468 -270z"/>
   <path fill="#F8F9FC" fill-rule="nonzero" d="M21024 9545l-3 -1084c-1,-151 -58,-203 -196,-123l-300 173c-168,97 -202,260 -201,353l3 1084c0,201 118,168 216,111l276 -159c135,-78 205,-177 205,-355zm-110 -1681c384,-222 506,-21 507,292l4 1231c1,391 -191,695 -504,876l-468 271c-323,186 -526,113 -527,-282l-3 -1211c-2,-395 207,-724 523,-907l468 -270z"/>
   <polygon fill="#F8F9FC" fill-rule="nonzero" points="11315,13406 11322,15805 10921,16037 10916,14094 10515,14441 10515,14139 10918,13635 "/>
   <polygon fill="#F8F9FC" fill-rule="nonzero" points="13754,11998 13761,14397 13360,14629 13354,12686 12954,13034 12953,12732 13356,12227 "/>
   <polygon fill="#F8F9FC" fill-rule="nonzero" points="23508,6366 23515,8766 23117,8995 23112,7053 22711,7400 22710,7098 23114,6594 "/>
   <polygon fill="#F8F9FC" fill-rule="nonzero" points="8888,18641 8895,21041 8494,21272 8488,19329 8088,19677 8087,19375 8490,18871 "/>
   <polygon fill="#F8F9FC" fill-rule="nonzero" points="13776,19653 13782,22053 13382,22284 13376,20337 12976,20685 12975,20387 13378,19883 "/>
   <path fill="#F8F9FC" fill-rule="nonzero" d="M16158 16188l-3 -1083c-1,-151 -58,-203 -196,-123l-300 173c-172,99 -202,255 -202,352l4 1084c0,197 118,168 216,112l276 -160c131,-76 205,-177 205,-355zm-110 -1681c384,-222 506,-21 507,293l4 1230c1,391 -191,696 -507,879l-468 270c-320,185 -523,108 -524,-283l-3 -1211c-2,-395 207,-725 523,-908l468 -270z"/>
   <path fill="#F8F9FC" fill-rule="nonzero" d="M18607 18608l-3 -1087c-1,-151 -58,-200 -196,-120l-300 173c-172,99 -202,256 -201,349l3 1084c0,201 118,168 216,112l276 -160c132,-76 206,-173 205,-351zm-109 -1681c384,-222 506,-21 507,293l3 1226c1,391 -190,700 -507,882l-465 269c-323,186 -526,109 -527,-285l-3 -1212c-1,-390 207,-720 523,-903l469 -270z"/>
   <path fill="#F8F9FC" fill-rule="nonzero" d="M21045 17200l-2 -1087c-1,-151 -58,-199 -197,-120l-299 173c-169,98 -202,256 -202,349l3 1084c1,201 119,168 216,112l277 -160c134,-78 205,-173 204,-351zm-109 -1681c384,-222 506,-21 507,293l4 1227c1,390 -191,699 -504,880l-468 270c-324,186 -526,110 -527,-285l-4 -1212c-1,-390 207,-720 524,-903l468 -270z"/>
   <polygon fill="#F8F9FC" fill-rule="nonzero" points="13765,15826 13772,18225 13371,18457 13365,16514 12965,16861 12964,16559 13367,16055 "/>
   <polygon fill="#F8F9FC" fill-rule="nonzero" points="18642,13010 18649,15409 18251,15639 18246,13696 17845,14043 17844,13741 18248,13237 "/>
   <polygon fill="#F8F9FC" fill-rule="nonzero" points="16214,18245 16221,20645 15824,20874 15818,18928 15418,19275 15417,18977 15820,18473 "/>
   <path fill="#F8F9FC" fill-rule="nonzero" d="M25934 6710l-3 -1084c0,-151 -58,-203 -196,-123l-299 173c-172,99 -202,260 -202,353l3 1083c1,202 119,168 216,112l277 -159c131,-76 205,-177 204,-355zm-109 -1681c384,-222 506,-21 507,292l3 1231c2,391 -190,695 -506,878l-465 268c-324,187 -526,114 -527,-281l-4 -1211c-1,-395 207,-724 524,-907l468 -270z"/>
   <path fill="#F8F9FC" fill-rule="nonzero" d="M25945 10538l-3 -1084c0,-151 -58,-203 -196,-124l-299 174c-172,99 -202,256 -202,352l3 1084c1,197 119,168 216,112l277 -160c131,-76 205,-177 204,-354zm-109 -1682c384,-222 506,-21 507,293l3 1231c1,390 -190,695 -507,878l-464 268c-324,187 -526,110 -527,-281l-4 -1211c-1,-395 207,-725 524,-908l468 -270z"/>
   <polygon fill="#F8F9FC" fill-rule="nonzero" points="26002,12594 26009,14994 25611,15223 25606,13277 25205,13624 25204,13326 25608,12822 "/>
   <path fill="#F8F9FC" fill-rule="nonzero" d="M23473 11965l-3 -1084c0,-151 -58,-203 -193,-125l-299 173c-172,99 -205,258 -205,355l3 1083c1,198 118,168 216,112l276 -160c135,-77 206,-176 205,-354zm-109 -1681c384,-222 506,-21 507,292l3 1231c1,391 -190,695 -503,876l-469 270c-320,185 -526,110 -527,-281l-3 -1211c-1,-395 207,-724 524,-907l468 -270z"/>
   <polygon fill="#F8F9FC" fill-rule="nonzero" points="23530,14022 23536,16421 23139,16651 23133,14704 22733,15052 22732,14753 23136,14249 "/>
   <polygon fill="#F8F9FC" fill-rule="nonzero" points="21080,11602 21087,14001 20690,14231 20684,12288 20284,12636 20283,12334 20686,11829 "/>
   <polygon fill="#D7E7F7" fill-rule="nonzero" points="4539,25499 3767,25050 4671,23486 5442,23934 "/>
   <path fill="#F8F9FC" fill-rule="nonzero" d="M5442 23934c129,137 275,253 440,347 164,94 339,161 523,202l-903 1564 -963 -548 903 -1565z"/>
   <polygon fill="#F18A67" fill-rule="nonzero" points="4078,25236 4539,25499 5502,26047 5962,26310 2653,32039 772,30964 "/>
   <polygon fill="#E74B23" fill-rule="nonzero" points="772,30964 0,30516 3307,24788 4078,25236 "/>
   <path fill="#E74B23" fill-rule="nonzero" d="M5866 24272l-771 -449c-159,-92 -300,-205 -424,-337 -1050,-1116 -911,-3584 422,-5888 256,-445 540,-855 842,-1224l772 448c-302,370 -586,779 -843,1224 -1332,2305 -1471,4772 -422,5888 125,132 266,246 424,338z"/>
   <path fill="#E74B23" fill-rule="nonzero" d="M6707 16822l-772 -448c578,-706 1222,-1264 1867,-1636 395,-228 791,-386 1171,-466l772 448c-381,80 -776,238 -1171,466 -645,373 -1289,931 -1867,1636z"/>
   <path fill="#E74B23" fill-rule="nonzero" d="M9745 14720l-772 -448c565,-119 1097,-64 1546,193l771 448c-449,-257 -981,-311 -1545,-193z"/>
   <path fill="#F18A67" fill-rule="nonzero" d="M10660 20779c1138,-1971 1132,-4099 -13,-4752 -573,-326 -1322,-222 -2070,210 -749,432 -1496,1192 -2065,2178 -1138,1971 -1132,4099 13,4752 573,326 1322,222 2071,-210 748,-432 1496,-1192 2064,-2178zm630 -5866c1503,857 1511,3649 18,6235 -747,1295 -1727,2293 -2709,2860 -768,443 -1536,622 -2194,475 -184,-41 -359,-108 -523,-202 -165,-94 -311,-210 -440,-347 -1049,-1116 -910,-3583 422,-5888 747,-1295 1728,-2293 2710,-2860 982,-566 1965,-703 2716,-273z"/>
   <path fill="#54C7BF" fill-rule="nonzero" d="M8577 16237c748,-432 1497,-536 2070,-210 1145,653 1151,2781 13,4752 -568,986 -1316,1746 -2064,2178 -749,432 -1498,536 -2071,210 -1145,-653 -1151,-2781 -13,-4752 569,-986 1316,-1746 2065,-2178z"/>
   <polygon fill="#F8F9FC" fill-rule="nonzero" points="9145,16860 9159,21853 8325,22334 8314,18292 7480,19015 7479,18387 8318,17337 "/>
  </g>
  <g id="Power_x0020_Point">
   <polygon fill="#E74B23" fill-rule="nonzero" points="29512,3972 29500,8168 33151,10276 33163,6081 "/>
   <polygon fill="#F18A67" fill-rule="nonzero" points="29848,3777 29512,3972 33163,6081 33151,10276 33487,10081 33500,5885 "/>
   <polygon fill="white" fill-rule="nonzero" points="32099,8454 31674,8696 31675,8210 "/>
   <path fill="white" fill-rule="nonzero" d="M31473 7890l-993 -573 0 -205 994 574 -1 204zm-989 -2364l923 533 -1 299 -923 -533 1 -299zm1441 2262l-1445 -835 1 -205 1445 835 -1 205zm2 -363l-1446 -835 1 -205 1445 835 0 205zm1 -363l-1446 -834 1 -206 1445 835 0 205zm-1658 859l1362 786 1 -571 498 287 7 -2241 -1860 -1074 -8 2813z"/>
  </g>
  <g id="_2603219526208">
   <path fill="#FF9911" fill-rule="nonzero" d="M7158 34636c903,0 1807,200 2498,599l-2486 1445 -12 -2044z"/>
   <polygon fill="#ED5F00" fill-rule="nonzero" points="9656,35235 9654,36243 7166,37688 7170,36680 "/>
   <polygon fill="#ED5F00" fill-rule="nonzero" points="7170,36680 7166,37688 7156,35644 7158,34636 "/>
   <path fill="#FFC107" fill-rule="nonzero" d="M7158 34636l12 2044 -2504 -1445c687,-399 1589,-599 2492,-599z"/>
   <polygon fill="#FFC104" fill-rule="nonzero" points="7170,36680 7166,37688 4663,36243 4666,35235 "/>
   <path fill="#54C7BF" fill-rule="nonzero" d="M4666 35235l2504 1445 -3278 753c-505,-735 -248,-1604 774,-2198z"/>
   <polygon fill="#00ADBD" fill-rule="nonzero" points="7170,36680 7166,37688 3889,38441 3892,37433 "/>
   <path fill="#328F89" fill-rule="nonzero" d="M3638 37678l3 -1008c-1,259 83,518 251,763l-3 1008c-168,-245 -252,-504 -251,-763z"/>
   <path fill="#F18A67" fill-rule="nonzero" d="M7170 36680l-2488 1446c-353,-205 -616,-441 -790,-693l3278 -753z"/>
   <path fill="#CC340E" fill-rule="nonzero" d="M4682 38126l-3 1008c-353,-204 -615,-441 -790,-693l3 -1008c174,252 437,488 790,693z"/>
   <polygon fill="#D62222" fill-rule="nonzero" points="7170,36680 7166,37688 4679,39134 4682,38126 "/>
   <path fill="#67A329" fill-rule="nonzero" d="M10698 36690l-3 1009c-1,519 -343,1039 -1025,1435 -687,399 -1589,598 -2491,598 -904,0 -1808,-199 -2500,-598l3 -1008c692,399 1596,598 2499,598 903,0 1805,-199 2492,-598 682,-397 1023,-916 1025,-1436z"/>
   <path fill="#95D94C" fill-rule="nonzero" d="M9656 35235c354,204 617,440 791,693 505,734 248,1603 -774,2198 -687,399 -1589,598 -2492,598 -903,0 -1807,-199 -2499,-598l2488 -1446 2486 -1445z"/>
  </g>
  <g id="files">
   <polygon fill="#9CB5CC" fill-rule="nonzero" points="32410,15273 32547,15192 32543,11685 32406,11765 "/>
   <path fill="#9CB5CC" fill-rule="nonzero" d="M32554 11755l137 -81c40,-23 68,-64 82,-121l-137 80c-14,57 -43,99 -82,122z"/>
   <path fill="#D7E7F7" fill-rule="nonzero" d="M32635 11474l138 -81c-21,-110 -77,-226 -152,-317l-138 81c76,91 132,206 152,317z"/>
   <path fill="#D7E7F7" fill-rule="nonzero" d="M32483 11157l138 -81c-44,-53 -95,-98 -149,-129 -32,-18 -63,-30 -93,-36l-137 80c29,6 60,18 93,37 54,31 104,76 148,129z"/>
   <path fill="#D7E7F7" fill-rule="nonzero" d="M32242 10991l137 -80c-48,-10 -90,-4 -125,16l-137 81c34,-20 77,-27 125,-17z"/>
   <polygon fill="#9CB5CC" fill-rule="nonzero" points="36580,18512 36718,18431 36713,14070 36575,14150 "/>
   <polygon fill="#D7E7F7" fill-rule="nonzero" points="36206,13516 36343,13435 32773,11393 32635,11474 "/>
   <path fill="#9CB5CC" fill-rule="nonzero" d="M36723 14140l137 -80c40,-24 68,-66 81,-123l-137 80c-13,58 -42,100 -81,123z"/>
   <polygon fill="white" fill-rule="nonzero" points="36435,13384 36573,13303 36548,13297 36411,13377 "/>
   <path fill="#D7E7F7" fill-rule="nonzero" d="M36411 13377l137 -80c-48,-10 -90,-4 -124,16l-137 81c34,-21 76,-27 124,-17z"/>
   <path fill="#D7E7F7" fill-rule="nonzero" d="M36804 13858l137 -80c-20,-110 -75,-225 -150,-315l-138 80c75,91 131,205 151,315z"/>
   <path fill="#D7E7F7" fill-rule="nonzero" d="M36653 13543l138 -80c-25,-30 -51,-57 -79,-80l-138 80c29,24 55,51 79,80z"/>
   <polygon fill="#9CB5CC" fill-rule="nonzero" points="40614,19966 40751,19885 40747,16377 40610,16458 "/>
   <polygon fill="#D7E7F7" fill-rule="nonzero" points="40240,15824 40378,15743 36941,13778 36804,13858 "/>
   <polygon fill="#9CB5CC" fill-rule="nonzero" points="36574,13463 36712,13383 36707,9021 36569,9102 "/>
   <polygon fill="#D7E7F7" fill-rule="nonzero" points="36569,9102 36707,9021 36568,8942 36430,9023 "/>
   <path fill="#F8F9FC" fill-rule="nonzero" d="M36430 9023l5 4361c-114,-36 -203,17 -229,132l-3571 -2042c-32,-175 -154,-362 -300,-446 -170,-97 -308,-17 -308,178 1,167 103,366 240,480l4 3508 139 79 -4 -3508c113,35 202,-17 230,-132l3570 2042c26,146 115,300 230,396l6 4361 138 80 -5 -4362c114,35 203,-17 229,-133l3436 1966c27,146 117,300 231,396l4 3507 139 80 -4 -3508c136,42 239,-40 238,-206 0,-195 -138,-433 -308,-531 -146,-83 -267,-35 -300,103l-3436 -1966c-27,-145 -116,-300 -230,-395l-5 -4361 -139 -79z"/>
   <path fill="#D7E7F7" fill-rule="nonzero" d="M40760 16448l137 -81c55,-32 89,-100 89,-196 0,-133 -65,-286 -160,-401l-137 80c95,115 159,269 159,402 0,96 -33,164 -88,196z"/>
   <path fill="#D7E7F7" fill-rule="nonzero" d="M40689 15850l137 -80c-44,-53 -94,-98 -148,-129 -33,-19 -64,-31 -93,-37l-138 81c29,6 61,18 93,36 54,31 105,76 149,129z"/>
   <path fill="#D7E7F7" fill-rule="nonzero" d="M40447 15685l138 -81c-48,-10 -91,-4 -125,17l-138 80c35,-20 77,-26 125,-16z"/>
   <path fill="#CC9900" fill-rule="nonzero" d="M34975 6896l275 -162c-22,-12 -42,-20 -62,-24l-275 162c20,4 40,11 62,24z"/>
   <path fill="#CC9900" fill-rule="nonzero" d="M34913 6872l275 -162c-31,-6 -59,-2 -81,11l-275 161c22,-13 50,-17 81,-10z"/>
   <path fill="#F2A92E" fill-rule="nonzero" d="M38337 11553l275 -161c35,-20 56,-63 56,-123l-275 161c0,61 -21,103 -56,123z"/>
   <polygon fill="#CC9900" fill-rule="nonzero" points="36524,7776 36799,7615 35250,6734 34975,6896 "/>
   <path fill="#CC9900" fill-rule="nonzero" d="M36870 7515l275 -161c-24,-14 -50,-23 -74,-28l-275 161c25,5 50,14 74,28z"/>
   <path fill="#CC9900" fill-rule="nonzero" d="M36796 7487l275 -161c-47,-10 -93,-4 -128,17l-276 161c36,-21 82,-27 129,-17z"/>
   <polygon fill="#CC9900" fill-rule="nonzero" points="38393,11430 38668,11269 38752,8488 38477,8650 "/>
   <polygon fill="#CC9900" fill-rule="nonzero" points="38275,8303 38550,8142 37145,7354 36870,7515 "/>
   <path fill="#CC9900" fill-rule="nonzero" d="M38477 8650l275 -162c0,-87 -42,-186 -104,-261l-275 161c62,75 104,175 104,262z"/>
   <path fill="#CC9900" fill-rule="nonzero" d="M38373 8388l275 -161c-29,-35 -62,-65 -98,-85l-275 161c36,21 69,50 98,85z"/>
   <path fill="#EBB512" fill-rule="nonzero" d="M38275 8303l-1405 -788c-106,-61 -224,-35 -261,57l-85 204 -1549 -880c-112,-64 -202,-12 -201,115l90 2400c0,122 87,271 193,332l3143 1798c107,61 193,11 193,-111l84 -2780c0,-128 -90,-283 -202,-347z"/>
   <polygon fill="#9CB5CC" fill-rule="nonzero" points="38357,10200 38483,10200 38598,9002 38461,9083 "/>
   <polygon fill="#D7E7F7" fill-rule="nonzero" points="38461,9083 38598,9002 35247,6800 35109,6880 "/>
   <polygon fill="#F8F9FC" fill-rule="nonzero" points="35109,6880 35007,7999 38357,10200 38461,9083 "/>
   <path fill="#CC9900" fill-rule="nonzero" d="M38827 18395l219 -128c-17,-10 -33,-17 -49,-20l-219 129c15,3 32,10 49,19z"/>
   <path fill="#CC9900" fill-rule="nonzero" d="M38778 18376l219 -129c-25,-5 -47,-2 -65,9l-219 128c18,-10 40,-13 65,-8z"/>
   <path fill="#F2A92E" fill-rule="nonzero" d="M41510 22112l220 -128c27,-16 44,-51 44,-99l-219 129c0,48 -17,82 -45,98z"/>
   <polygon fill="#CC9900" fill-rule="nonzero" points="40063,19098 40283,18969 39046,18267 38827,18395 "/>
   <path fill="#CC9900" fill-rule="nonzero" d="M40340 18890l219 -129c-20,-11 -40,-19 -59,-23l-220 129c20,4 40,12 60,23z"/>
   <path fill="#CC9900" fill-rule="nonzero" d="M40280 18867l220 -129c-38,-7 -74,-2 -103,14l-219 129c28,-17 64,-22 102,-14z"/>
   <polygon fill="#CC9900" fill-rule="nonzero" points="41555,22014 41774,21885 41841,19666 41622,19795 "/>
   <polygon fill="#CC9900" fill-rule="nonzero" points="41461,19519 41681,19390 40559,18761 40340,18890 "/>
   <path fill="#CC9900" fill-rule="nonzero" d="M41622 19795l219 -129c0,-69 -33,-149 -83,-208l-219 128c49,60 83,139 83,209z"/>
   <path fill="#CC9900" fill-rule="nonzero" d="M41539 19586l219 -128c-23,-28 -49,-52 -77,-68l-220 129c28,16 55,39 78,67z"/>
   <path fill="#EBB512" fill-rule="nonzero" d="M41461 19519l-1121 -629c-85,-49 -179,-28 -209,45l-68 163 -1236 -703c-89,-50 -161,-9 -161,93l73 1915c0,97 69,216 154,264l2508 1435c85,49 154,9 154,-88l67 -2219c0,-102 -72,-225 -161,-276z"/>
   <polygon fill="#9CB5CC" fill-rule="nonzero" points="41526,21033 41636,20968 41719,20076 41609,20141 "/>
   <polygon fill="#D7E7F7" fill-rule="nonzero" points="41609,20141 41719,20076 39044,18319 38934,18383 "/>
   <polygon fill="#F8F9FC" fill-rule="nonzero" points="38934,18383 38852,19276 41526,21033 41609,20141 "/>
   <path fill="#CC9900" fill-rule="nonzero" d="M34656 16033l219 -129c-17,-9 -33,-16 -49,-19l-219 129c15,3 32,9 49,19z"/>
   <path fill="#CC9900" fill-rule="nonzero" d="M34607 16014l219 -129c-25,-5 -47,-2 -65,9l-219 128c18,-10 40,-13 65,-8z"/>
   <path fill="#F2A92E" fill-rule="nonzero" d="M37339 19750l220 -128c27,-17 44,-51 44,-99l-219 129c0,48 -17,82 -45,98z"/>
   <polygon fill="#CC9900" fill-rule="nonzero" points="35892,16736 36112,16607 34875,15904 34656,16033 "/>
   <path fill="#CC9900" fill-rule="nonzero" d="M36168 16528l220 -129c-20,-11 -40,-19 -59,-23l-220 129c20,4 40,11 59,23z"/>
   <path fill="#CC9900" fill-rule="nonzero" d="M36109 16505l220 -129c-38,-8 -74,-2 -103,14l-219 129c28,-17 64,-22 102,-14z"/>
   <polygon fill="#CC9900" fill-rule="nonzero" points="37384,19652 37603,19523 37670,17304 37451,17433 "/>
   <polygon fill="#CC9900" fill-rule="nonzero" points="37290,17157 37509,17028 36388,16399 36168,16528 "/>
   <path fill="#CC9900" fill-rule="nonzero" d="M37451 17433l219 -129c0,-69 -33,-149 -83,-209l-219 129c49,60 83,139 83,209z"/>
   <path fill="#CC9900" fill-rule="nonzero" d="M37368 17224l219 -129c-23,-27 -49,-51 -78,-67l-219 129c28,16 55,39 78,67z"/>
   <path fill="#EBB512" fill-rule="nonzero" d="M37290 17157l-1122 -629c-84,-49 -178,-28 -208,45l-68 163 -1236 -703c-89,-51 -161,-9 -161,92l73 1916c0,97 69,216 154,264l2508 1435c85,49 154,9 154,-88l67 -2219c0,-102 -72,-226 -161,-276z"/>
   <polygon fill="#9CB5CC" fill-rule="nonzero" points="37355,18670 37465,18606 37548,17714 37438,17778 "/>
   <polygon fill="#D7E7F7" fill-rule="nonzero" points="37438,17778 37548,17714 34873,15957 34763,16021 "/>
   <polygon fill="#F8F9FC" fill-rule="nonzero" points="34763,16021 34681,16913 37355,18670 37438,17778 "/>
   <path fill="#CC9900" fill-rule="nonzero" d="M30775 13824l220 -129c-17,-10 -34,-16 -49,-19l-220 129c16,3 32,9 49,19z"/>
   <path fill="#CC9900" fill-rule="nonzero" d="M30726 13805l220 -129c-25,-5 -48,-2 -65,9l-220 128c18,-10 40,-14 65,-8z"/>
   <path fill="#F2A92E" fill-rule="nonzero" d="M33459 17541l219 -129c28,-16 45,-50 45,-98l-220 129c0,48 -17,82 -44,98z"/>
   <polygon fill="#CC9900" fill-rule="nonzero" points="32012,14526 32231,14398 30995,13695 30775,13824 "/>
   <path fill="#CC9900" fill-rule="nonzero" d="M32288 14318l219 -128c-19,-12 -39,-19 -59,-23l-219 129c19,4 39,11 59,22z"/>
   <path fill="#CC9900" fill-rule="nonzero" d="M32229 14296l219 -129c-38,-8 -74,-3 -102,14l-220 129c28,-17 65,-22 103,-14z"/>
   <polygon fill="#CC9900" fill-rule="nonzero" points="33503,17443 33723,17314 33790,15095 33570,15224 "/>
   <polygon fill="#CC9900" fill-rule="nonzero" points="33409,14947 33629,14819 32507,14190 32288,14318 "/>
   <path fill="#CC9900" fill-rule="nonzero" d="M33570 15224l220 -129c0,-70 -34,-149 -83,-209l-220 129c50,60 83,139 83,209z"/>
   <path fill="#CC9900" fill-rule="nonzero" d="M33487 15015l220 -129c-23,-28 -50,-51 -78,-67l-220 128c29,16 55,40 78,68z"/>
   <path fill="#EBB512" fill-rule="nonzero" d="M33409 14947l-1121 -629c-85,-48 -179,-28 -209,46l-67 162 -1237 -702c-89,-51 -161,-10 -160,92l72 1916c0,97 69,215 154,264l2508 1435c85,48 154,9 154,-88l67 -2219c0,-102 -72,-226 -161,-277z"/>
   <polygon fill="#9CB5CC" fill-rule="nonzero" points="33474,16461 33584,16397 33667,15505 33557,15569 "/>
   <polygon fill="#D7E7F7" fill-rule="nonzero" points="33557,15569 33667,15505 30992,13747 30883,13812 "/>
   <polygon fill="#F8F9FC" fill-rule="nonzero" points="30883,13812 30801,14704 33474,16461 33557,15569 "/>
   <path fill="#CC9900" fill-rule="nonzero" d="M36620 9190c-21,-65 -65,-138 -118,-202 -49,-59 -106,-111 -160,-142l-1493 -870c-26,-15 -51,-24 -74,-29 -35,-7 -66,-3 -90,11l275 -162c24,-14 55,-18 90,-10 23,5 48,14 74,29l1493 870c54,31 111,82 160,142 53,64 97,137 118,202l90 278 1646 947c43,25 83,60 117,101 59,71 98,157 98,230l-91 2061c0,48 -18,82 -48,100l-275 161c30,-17 48,-51 48,-100l91 -2061c0,-72 -39,-159 -98,-229 -34,-41 -74,-77 -117,-102l-1646 -947 -90 -278z"/>
   <path fill="#CC9900" fill-rule="nonzero" d="M38908 18607c18,4 38,12 59,24l1192 694c43,25 88,66 127,113 43,51 78,110 94,161l73 222 1313 756c34,20 67,48 94,81 46,56 78,125 78,183l-73 1645c0,39 -14,66 -38,80l-220 129c24,-14 38,-42 38,-80l73 -1645c0,-58 -31,-127 -78,-183 -27,-33 -59,-61 -94,-81l-1313 -756 -72 -222c-17,-52 -52,-110 -94,-161 -39,-47 -85,-89 -128,-113l-1191 -694c-21,-12 -41,-20 -59,-24 -28,-6 -53,-3 -72,9l220 -129c19,-11 43,-14 71,-9z"/>
   <path fill="#CC9900" fill-rule="nonzero" d="M34737 16245c18,4 38,12 59,24l1192 694c43,24 88,66 127,113 43,51 78,110 94,161l72 222 1314 756c34,20 67,48 94,81 46,56 78,125 78,183l-73 1645c0,39 -15,66 -39,80l-219 128c24,-14 38,-41 38,-79l73 -1645c0,-58 -31,-127 -78,-183 -27,-33 -59,-62 -94,-81l-1313 -756 -72 -222c-17,-52 -52,-110 -94,-161 -39,-47 -85,-89 -128,-114l-1191 -694c-21,-12 -41,-19 -59,-23 -28,-6 -53,-3 -72,8l220 -128c19,-11 43,-14 71,-9z"/>
   <path fill="#D4A413" fill-rule="nonzero" d="M30785 14044c19,-11 43,-14 71,-8 19,4 39,12 59,23l1192 694c43,25 88,67 128,114 42,51 77,109 94,161l72 222 1313 756c35,19 67,48 94,81 47,56 78,125 78,183l-73 1645c0,38 -14,66 -38,79l-220 129c24,-14 39,-41 39,-80l73 -1644c0,-58 -32,-127 -78,-184 -28,-32 -60,-61 -94,-81l-1314 -755 -72 -222c-16,-52 -51,-110 -94,-161 -39,-48 -84,-89 -128,-114l-1191 -694c-21,-12 -41,-19 -59,-23 -28,-6 -53,-3 -71,8l219 -129z"/>
   <path fill="#FFC107" fill-rule="nonzero" d="M34849 7976c-118,-67 -214,-27 -214,87l96 2600c0,109 92,252 205,317l3339 1909c112,65 205,27 205,-82l91 -2061c0,-114 -98,-264 -215,-331l-1646 -947 -90 -278c-41,-125 -166,-280 -278,-344l-1493 -870z"/>
   <path fill="#FFC107" fill-rule="nonzero" d="M38748 18760c-94,-54 -171,-23 -171,69l76 2074c1,87 74,202 164,253l2665 1524c90,52 164,22 163,-65l73 -1645c0,-92 -78,-211 -172,-264l-1313 -756 -72 -222c-32,-99 -132,-223 -222,-274l-1191 -694z"/>
   <path fill="#FFC107" fill-rule="nonzero" d="M34577 16397c-94,-53 -171,-22 -171,70l76 2074c0,87 74,202 164,253l2665 1524c90,51 163,22 163,-65l73 -1645c0,-92 -78,-211 -172,-264l-1313 -756 -72 -222c-32,-100 -132,-223 -222,-275l-1191 -694z"/>
   <path fill="#FFC107" fill-rule="nonzero" d="M30696 14188c-94,-54 -171,-22 -171,70l77 2074c0,87 74,202 164,253l2664 1524c90,51 164,21 164,-66l73 -1644c0,-92 -78,-211 -172,-265l-1314 -755 -72 -222c-32,-100 -132,-223 -222,-275l-1191 -694z"/>
  </g>
  <g id="diagram">
   <polygon fill="#CC340E" fill-rule="nonzero" points="43585,28572 43171,28331 44612,25822 45027,26063 "/>
   <polygon fill="#E74B23" fill-rule="nonzero" points="44583,25813 44168,25572 45774,24143 46188,24384 "/>
   <polygon fill="#E74B23" fill-rule="nonzero" points="41591,28800 41176,28559 43171,28331 43585,28572 "/>
   <polygon fill="#CC340E" fill-rule="nonzero" points="38860,33530 38445,33289 41176,28559 41591,28800 "/>
   <polygon fill="#F18A67" fill-rule="nonzero" points="44583,25813 46188,24384 45768,26480 45325,26229 43688,29076 41692,29306 39156,33699 38860,33530 41591,28800 43585,28572 45027,26063 "/>
   <polygon fill="#B4CADE" fill-rule="nonzero" points="46347,33076 45103,32353 45090,27726 46334,28449 "/>
   <polygon fill="#DBEDFF" fill-rule="nonzero" points="46334,28449 45090,27726 46431,26952 47675,27675 "/>
   <polygon fill="white" fill-rule="nonzero" points="47675,27675 47688,32302 46347,33076 46334,28449 "/>
   <polygon fill="#328F89" fill-rule="nonzero" points="44645,34059 43401,33336 43393,30512 44637,31235 "/>
   <polygon fill="#52B3AC" fill-rule="nonzero" points="44637,31235 43393,30512 44734,29738 45978,30461 "/>
   <polygon fill="#54C7BF" fill-rule="nonzero" points="45978,30461 45986,33285 44645,34059 44637,31235 "/>
   <polygon fill="#CC340E" fill-rule="nonzero" points="42944,35041 41700,34318 41690,30741 42934,31464 "/>
   <polygon fill="#E74B23" fill-rule="nonzero" points="42934,31464 41690,30741 43032,29966 44276,30689 "/>
   <polygon fill="#F18A67" fill-rule="nonzero" points="44276,30689 44286,34267 42944,35041 42934,31464 "/>
   <polygon fill="#CC9900" fill-rule="nonzero" points="41243,36004 39999,35281 39993,33308 41237,34031 "/>
   <polygon fill="#EBB512" fill-rule="nonzero" points="41237,34031 39993,33308 41334,32534 42578,33257 "/>
   <polygon fill="#FFC107" fill-rule="nonzero" points="42578,33257 42584,35230 41243,36004 41237,34031 "/>
  </g>
  <g id="cloude">
   <path fill="#D4A413" fill-rule="nonzero" d="M10465 2163c-122,-70 -272,-91 -440,-56 -103,22 -214,65 -328,131 -110,64 -215,144 -315,236l404 235c100,-93 205,-172 315,-236 114,-66 225,-109 328,-131 168,-35 318,-14 440,56l-404 -235z"/>
   <path fill="#D4A413" fill-rule="nonzero" d="M9033 1881c-140,-81 -314,-105 -508,-64 -120,25 -248,75 -380,151 -220,128 -427,313 -607,531 -330,403 -567,919 -624,1400 -99,22 -205,65 -314,128 -190,109 -368,269 -523,457 -331,403 -554,939 -553,1406 1,340 121,579 315,692l404 235c-194,-113 -314,-352 -315,-693 -1,-466 222,-1002 553,-1405 155,-189 333,-348 523,-458 109,-62 215,-105 314,-127 57,-481 295,-998 625,-1400 179,-219 386,-404 606,-531 133,-76 260,-126 380,-152 194,-40 368,-16 508,65l-404 -235z"/>
   <path fill="#FFC107" fill-rule="nonzero" d="M8549 2203c625,-361 1145,-132 1237,506 100,-93 205,-172 315,-236 596,-344 1081,-67 1083,617 2,685 -480,1519 -1076,1863l-3097 1788c-597,345 -1081,68 -1083,-617 -2,-684 479,-1518 1076,-1863 109,-62 215,-105 314,-127 89,-742 605,-1570 1231,-1931z"/>
   <path fill="#E74B23" fill-rule="nonzero" d="M13621 2500c-121,-71 -271,-92 -439,-56 -104,21 -214,65 -328,131 -110,63 -215,143 -315,235l404 235c100,-92 205,-172 315,-236 114,-66 224,-109 328,-131 168,-35 318,-14 439,56l-404 -234z"/>
   <path fill="#E74B23" fill-rule="nonzero" d="M12189 2217c-140,-82 -314,-106 -508,-65 -120,25 -247,75 -379,151 -220,127 -426,312 -605,530 -331,403 -568,920 -626,1402 -99,22 -205,64 -315,128 -189,109 -367,269 -522,457 -331,403 -554,939 -553,1406 1,340 121,579 315,692l404 235c-194,-113 -314,-352 -315,-692 -1,-467 222,-1003 553,-1406 155,-189 333,-348 523,-457 109,-64 215,-106 315,-129 57,-481 295,-998 625,-1401 179,-218 385,-403 605,-530 132,-76 259,-126 379,-151 194,-41 368,-17 508,65l-404 -235z"/>
   <path fill="#F18A67" fill-rule="nonzero" d="M11706 2538c625,-361 1144,-131 1237,507 100,-92 205,-172 315,-236 596,-344 1080,-67 1082,617 2,685 -479,1519 -1075,1863l-3098 1788c-595,344 -1080,68 -1082,-616 -2,-685 480,-1519 1076,-1863 109,-64 215,-106 315,-129 88,-742 605,-1570 1230,-1931z"/>
   <path fill="#F8F9FC" fill-rule="nonzero" d="M13745 1813l-303 -176c-50,-359 -172,-650 -363,-867 -81,-91 -172,-167 -273,-225l303 176c101,59 192,134 273,225 191,217 313,508 363,867z"/>
   <path fill="#D7E7F7" fill-rule="nonzero" d="M10805 1035l-303 -176c223,-201 454,-369 685,-503 269,-155 537,-262 794,-316l303 176c-256,54 -525,161 -794,316 -231,134 -462,303 -685,503z"/>
   <path fill="#D7E7F7" fill-rule="nonzero" d="M12284 216l-303 -176c118,-25 234,-38 346,-40 258,-3 493,56 694,173l304 176c-202,-117 -437,-176 -695,-173 -112,2 -228,15 -346,40z"/>
   <polygon fill="#D7E7F7" fill-rule="nonzero" points="10152,1951 9848,1774 10375,615 10678,791 "/>
   <path fill="#F8F9FC" fill-rule="nonzero" d="M10678 791l127 244c223,-200 454,-369 685,-503 392,-226 785,-351 1140,-356 405,-5 753,143 1005,429 217,246 355,577 412,985l-302 223c-50,-359 -172,-650 -363,-867 -223,-252 -528,-382 -885,-377 -312,4 -656,114 -1000,313 -189,109 -378,245 -562,404l125 240 -908 425 526 -1160z"/>
   <polygon fill="#9CB5CC" fill-rule="nonzero" points="12107,7427 11804,7251 11628,7066 11931,7242 "/>
   <polygon fill="#D7E7F7" fill-rule="nonzero" points="11580,6871 11277,6695 12185,6077 12489,6254 "/>
   <polygon fill="#9CB5CC" fill-rule="nonzero" points="11752,7053 11449,6877 11277,6695 11580,6871 "/>
   <path fill="#D7E7F7" fill-rule="nonzero" d="M9188 8006l-303 -176c258,150 575,189 922,116l303 176c-347,73 -664,34 -922,-116z"/>
   <path fill="#D7E7F7" fill-rule="nonzero" d="M10110 8122l-303 -176c26,-5 52,-12 79,-18 197,-51 400,-138 603,-255 331,-191 660,-463 960,-796l303 176c-300,333 -629,605 -960,796 -203,117 -406,204 -603,255 -27,6 -53,13 -79,18z"/>
   <polygon fill="#9CB5CC" fill-rule="nonzero" points="8362,7602 8058,7426 8346,7147 8649,7323 "/>
   <path fill="#F8F9FC" fill-rule="nonzero" d="M8971 8378l-303 -176 -12 -7c-271,-162 -473,-421 -598,-769l304 176c124,348 326,607 598,769l11 7z"/>
   <path fill="#F8F9FC" fill-rule="nonzero" d="M11580 6871l909 -617 -382 1173 -176 -185c-352,401 -742,730 -1134,956 -231,134 -464,232 -689,291 -435,112 -832,71 -1148,-118 -272,-162 -474,-421 -598,-769l287 -279c111,306 289,534 529,677 279,166 628,201 1011,104 197,-51 400,-138 603,-255 331,-191 660,-463 960,-796l-172 -182z"/>
  </g>
  <g id="tablice">
   <polygon fill="#9CB5CC" fill-rule="nonzero" points="44675,21528 44934,21377 44939,19838 44679,19988 "/>
   <polygon fill="#D7E7F7" fill-rule="nonzero" points="44679,19988 44939,19838 44808,19762 44549,19913 "/>
   <polygon fill="#D7E7F7" fill-rule="nonzero" points="46070,22333 46329,22182 44934,21377 44675,21528 "/>
   <polygon fill="#9CB5CC" fill-rule="nonzero" points="46069,22482 46328,22332 46329,22182 46070,22333 "/>
   <polygon fill="#F8F9FC" fill-rule="nonzero" points="44549,19913 44544,21602 46069,22482 46070,22333 44675,21528 44679,19988 "/>
   <polygon fill="#D7E7F7" fill-rule="nonzero" points="46632,22732 46891,22581 46330,21883 46071,22033 "/>
   <polygon fill="#F8F9FC" fill-rule="nonzero" points="46071,22033 46070,22333 46069,22482 46068,22781 46632,22732 "/>
   <polygon fill="#F8F9FC" fill-rule="nonzero" points="43290,18372 43288,18994 44264,19557 44265,18936 "/>
   <polygon fill="#F8F9FC" fill-rule="nonzero" points="44320,18967 44319,19589 45458,20247 45459,19625 "/>
   <polygon fill="#F8F9FC" fill-rule="nonzero" points="44323,18244 44321,18904 45460,19562 45461,18902 "/>
   <polygon fill="#F8F9FC" fill-rule="nonzero" points="43296,16203 43294,16864 44270,17427 44272,16766 "/>
   <polygon fill="#025A82" fill-rule="nonzero" points="46490,20220 46490,20157 45515,19593 45514,19657 "/>
   <polygon fill="#F8F9FC" fill-rule="nonzero" points="43298,15480 43296,16141 44272,16704 44274,16043 "/>
   <polygon fill="#F8F9FC" fill-rule="nonzero" points="45517,18934 45515,19593 46490,20157 46492,19497 "/>
   <polygon fill="#F8F9FC" fill-rule="nonzero" points="43300,14866 43298,15418 44274,15981 44275,15429 "/>
   <polygon fill="#F8F9FC" fill-rule="nonzero" points="44327,16798 44325,17459 45464,18117 45465,17456 "/>
   <polygon fill="#F8F9FC" fill-rule="nonzero" points="45521,17488 45519,18149 46494,18712 46496,18051 "/>
   <polygon fill="#F8F9FC" fill-rule="nonzero" points="44330,15461 44329,16013 45468,16671 45469,16119 "/>
   <path fill="#F8F9FC" fill-rule="nonzero" d="M43233 19026l12 -4254 3310 1912 -12 4253 -3310 -1911zm3449 -2380l-3571 -2062 -13 4517 3572 2062 12 -4517z"/>
   <polygon fill="#F8F9FC" fill-rule="nonzero" points="43292,17649 43290,18309 44266,18872 44267,18212 "/>
   <polygon fill="#025A82" fill-rule="nonzero" points="45459,19625 45460,19562 44321,18904 44320,18967 "/>
   <polygon fill="#F8F9FC" fill-rule="nonzero" points="43294,16926 43292,17587 44268,18151 44269,17489 "/>
   <polygon fill="#F8F9FC" fill-rule="nonzero" points="45514,19657 45513,20279 46488,20842 46490,20220 "/>
   <polygon fill="#F8F9FC" fill-rule="nonzero" points="45519,18211 45517,18872 46492,19435 46494,18774 "/>
   <polygon fill="#F8F9FC" fill-rule="nonzero" points="44329,16075 44327,16736 45466,17394 45467,16733 "/>
   <polygon fill="#F8F9FC" fill-rule="nonzero" points="45523,16765 45521,17426 46496,17989 46498,17328 "/>
   <polygon fill="#F8F9FC" fill-rule="nonzero" points="44325,17521 44323,18182 45462,18840 45463,18179 "/>
   <polygon fill="#F8F9FC" fill-rule="nonzero" points="45524,16151 45523,16703 46498,17266 46500,16714 "/>
   <polygon fill="#9CB5CC" fill-rule="nonzero" points="46670,21163 47188,20862 47201,16345 46682,16646 "/>
   <polygon fill="#F18A67" fill-rule="nonzero" points="46685,15722 47203,15421 43632,13359 43114,13660 "/>
   <polygon fill="#CC340E" fill-rule="nonzero" points="46682,16646 47201,16345 47203,15421 46685,15722 "/>
   <polygon fill="#E74B23" fill-rule="nonzero" points="43114,13660 43111,14584 46682,16646 46685,15722 "/>
   <polygon fill="#025A82" fill-rule="nonzero" points="47337,23908 47310,23893 47309,23956 47337,23972 49513,25228 49513,25165 "/>
   <polygon fill="#F8F9FC" fill-rule="nonzero" points="49555,25253 49554,25864 50536,26431 50538,25820 "/>
   <polygon fill="#F8F9FC" fill-rule="nonzero" points="47341,22557 47339,23170 49515,24427 49517,23813 "/>
   <polygon fill="#025A82" fill-rule="nonzero" points="50567,25034 50540,25019 49558,24451 49557,24513 50540,25081 50567,25096 "/>
   <path fill="#F8F9FC" fill-rule="nonzero" d="M47281 24615l6 -2153 3309 1911 -6 2153 -3309 -1911zm3442 -280l-3571 -2062 -7 2452 3571 2061 7 -2451z"/>
   <polygon fill="#F8F9FC" fill-rule="nonzero" points="49557,24513 49556,25189 50538,25757 50540,25081 "/>
   <polygon fill="#F8F9FC" fill-rule="nonzero" points="49559,23838 49558,24451 50540,25019 50542,24405 "/>
   <path fill="#025A82" fill-rule="nonzero" d="M50542 24405l-983 -567 0 -33 -42 -24 0 32 -2176 -1256 -2 613 -27 -15 0 62 27 16 -2 675 -27 -15 -1 63 28 16 -2 611 2176 1257 0 32 42 24 1 -32 982 567 2 -611 27 16 0 -64 -27 -15 2 -676 27 15 0 -62 -27 -15 2 -614zm-3261 210l6 -2153 3309 1911 -6 2153 -3309 -1911z"/>
   <polygon fill="#F8F9FC" fill-rule="nonzero" points="47337,23972 47335,24583 49511,25840 49513,25228 "/>
   <polygon fill="#F8F9FC" fill-rule="nonzero" points="47339,23233 47337,23908 49513,25165 49515,24489 "/>
   <polygon fill="#025A82" fill-rule="nonzero" points="47339,23170 47312,23155 47312,23217 47339,23233 49515,24489 49515,24427 "/>
   <polygon fill="#025A82" fill-rule="nonzero" points="50565,25772 50538,25757 49556,25189 49555,25253 50538,25820 50565,25836 "/>
   <polygon fill="#025A82" fill-rule="nonzero" points="49517,23781 49517,23813 49515,24427 49515,24489 49513,25165 49513,25228 49511,25840 49511,25872 49553,25896 49554,25864 49555,25253 49556,25189 49557,24513 49558,24451 49559,23838 49559,23805 "/>
   <polygon fill="#9CB5CC" fill-rule="nonzero" points="50716,26786 51235,26485 51242,24034 50723,24335 "/>
   <polygon fill="#F18A67" fill-rule="nonzero" points="50726,23413 51244,23111 47673,21049 47155,21351 "/>
   <polygon fill="#E74B23" fill-rule="nonzero" points="47155,21351 47152,22273 50723,24335 50726,23413 "/>
   <polygon fill="#CC340E" fill-rule="nonzero" points="50723,24335 51242,24034 51244,23111 50726,23413 "/>
   <polygon fill="#F8F9FC" fill-rule="nonzero" points="49472,20588 49471,21202 50609,21859 50611,21245 "/>
   <polygon fill="#025A82" fill-rule="nonzero" points="50611,21245 50611,21182 49472,20525 49472,20588 "/>
   <polygon fill="#F8F9FC" fill-rule="nonzero" points="48446,18516 48444,19191 49419,19755 49421,19079 "/>
   <polygon fill="#025A82" fill-rule="nonzero" points="48446,18452 48419,18437 48419,18500 48446,18516 49421,19079 49422,19015 "/>
   <polygon fill="#F8F9FC" fill-rule="nonzero" points="49474,19849 49472,20525 50611,21182 50613,20506 "/>
   <polygon fill="#F8F9FC" fill-rule="nonzero" points="49476,19111 49475,19787 50613,20444 50615,19768 "/>
   <polygon fill="#F8F9FC" fill-rule="nonzero" points="50668,20538 50666,21214 51642,21777 51644,21101 "/>
   <polygon fill="#F8F9FC" fill-rule="nonzero" points="49478,18434 49477,19047 50615,19705 50617,19091 "/>
   <polygon fill="#025A82" fill-rule="nonzero" points="50617,19060 50617,19091 50615,19705 50615,19768 50613,20444 50613,20506 50611,21182 50611,21245 50609,21859 50609,21890 50664,21922 50665,21891 50666,21277 50666,21214 50668,20538 50669,20476 50670,19800 50671,19737 50672,19123 50672,19092 "/>
   <polygon fill="#F8F9FC" fill-rule="nonzero" points="50670,19800 50669,20476 51644,21039 51646,20363 "/>
   <polygon fill="#025A82" fill-rule="nonzero" points="51674,20316 51646,20300 50671,19737 50670,19800 51646,20363 51674,20380 "/>
   <polygon fill="#F8F9FC" fill-rule="nonzero" points="50672,19123 50671,19737 51646,20300 51648,19686 "/>
   <path fill="#025A82" fill-rule="nonzero" d="M48419 18500l0 -63 27 15 2 -614 975 564 0 -31 56 31 -1 32 1139 657 0 -31 55 32 0 31 976 563 -2 614 28 16 0 64 -28 -17 -2 676 28 17 0 62 -28 -17 -2 676 28 16 0 64 -28 -16 -2 613 -975 -563 -1 31 -55 -32 0 -31 -1138 -657 0 31 -56 -32 0 -31 -975 -563 2 -614 -27 -16 0 -63 27 15 2 -675 -27 -16 0 -62 27 15 2 -675 -27 -16zm3284 1156l-3310 -1911 -9 2892 3311 1911 8 -2892z"/>
   <polygon fill="#F8F9FC" fill-rule="nonzero" points="48442,19993 48440,20607 49415,21170 49417,20556 "/>
   <polygon fill="#F8F9FC" fill-rule="nonzero" points="48444,19254 48442,19929 49417,20493 49419,19817 "/>
   <polygon fill="#025A82" fill-rule="nonzero" points="48444,19191 48417,19176 48417,19238 48444,19254 49419,19817 49419,19755 "/>
   <polygon fill="#F8F9FC" fill-rule="nonzero" points="48448,17838 48446,18452 49422,19015 49423,18402 "/>
   <polygon fill="#F8F9FC" fill-rule="nonzero" points="50666,21277 50665,21891 51640,22454 51642,21841 "/>
   <polygon fill="#025A82" fill-rule="nonzero" points="51672,21056 51644,21039 50669,20476 50668,20538 51644,21101 51672,21118 "/>
   <polygon fill="#CC340E" fill-rule="nonzero" points="51830,19618 52349,19317 52351,18393 51833,18694 "/>
   <path fill="#F8F9FC" fill-rule="nonzero" d="M48384 20637l9 -2892 3310 1911 -8 2892 -3311 -1911zm3446 -1019l-3571 -2061 -9 3112 3572 2062 8 -3113z"/>
   <polygon fill="#025A82" fill-rule="nonzero" points="48442,19929 48415,19914 48415,19977 48442,19993 49417,20556 49417,20493 "/>
   <polygon fill="#025A82" fill-rule="nonzero" points="50613,20506 50613,20444 49475,19787 49474,19849 "/>
   <polygon fill="#025A82" fill-rule="nonzero" points="49423,18371 49423,18402 49422,19015 49421,19079 49419,19755 49419,19817 49417,20493 49417,20556 49415,21170 49415,21201 49471,21233 49471,21202 49472,20588 49472,20525 49474,19849 49475,19787 49476,19111 49477,19047 49478,18434 49479,18402 "/>
   <polygon fill="#025A82" fill-rule="nonzero" points="51670,21793 51642,21777 50666,21214 50666,21277 51642,21841 51670,21857 "/>
   <polygon fill="#025A82" fill-rule="nonzero" points="50615,19768 50615,19705 49477,19047 49476,19111 "/>
   <polygon fill="#9CB5CC" fill-rule="nonzero" points="51822,22731 52340,22429 52349,19317 51830,19618 "/>
   <polygon fill="#F18A67" fill-rule="nonzero" points="51833,18694 52351,18393 48780,16331 48262,16633 "/>
   <polygon fill="#E74B23" fill-rule="nonzero" points="48262,16633 48259,17557 51830,19618 51833,18694 "/>
   <polygon fill="#D7E7F7" fill-rule="nonzero" points="44688,13635 44947,13485 44687,13335 44428,13486 "/>
   <polygon fill="#D7E7F7" fill-rule="nonzero" points="44818,13711 45077,13560 44947,13485 44688,13635 "/>
   <polygon fill="#D7E7F7" fill-rule="nonzero" points="45078,13861 45338,13710 45077,13560 44818,13711 "/>
   <polygon fill="#9CB5CC" fill-rule="nonzero" points="44751,14321 45011,14170 45338,13710 45078,13861 "/>
   <polygon fill="#F8F9FC" fill-rule="nonzero" points="44428,13486 44751,14321 45078,13861 44818,13711 44688,13635 "/>
   <polygon fill="#9CB5CC" fill-rule="nonzero" points="44818,13711 45077,13560 45079,12890 44820,13040 "/>
   <polygon fill="#9CB5CC" fill-rule="nonzero" points="50506,17644 50765,17493 50770,16024 50510,16174 "/>
   <polygon fill="#F8F9FC" fill-rule="nonzero" points="44690,12814 44688,13635 44818,13711 44820,13040 50380,16250 50376,17568 50506,17644 50510,16174 "/>
   <polygon fill="#D7E7F7" fill-rule="nonzero" points="50510,16174 50770,16024 44949,12663 44690,12814 "/>
   <polygon fill="#D7E7F7" fill-rule="nonzero" points="53173,26566 53432,26415 51224,25140 50965,25291 "/>
   <polygon fill="#9CB5CC" fill-rule="nonzero" points="52478,21554 52737,21404 52738,21105 52479,21256 "/>
   <polygon fill="#9CB5CC" fill-rule="nonzero" points="52479,21256 52738,21105 52739,20954 52479,21105 "/>
   <polygon fill="#F8F9FC" fill-rule="nonzero" points="52480,20807 51916,20855 52478,21554 52479,21256 52479,21105 "/>
   <polygon fill="#9CB5CC" fill-rule="nonzero" points="52479,21105 52739,20954 52739,20656 52480,20807 "/>
   <polygon fill="#D7E7F7" fill-rule="nonzero" points="52480,20807 52739,20656 52175,20705 51916,20855 "/>
   <polygon fill="#9CB5CC" fill-rule="nonzero" points="53303,26791 53562,26640 53577,21438 53318,21589 "/>
   <polygon fill="#F8F9FC" fill-rule="nonzero" points="52479,21105 52479,21256 53187,21665 53173,26566 50965,25291 50964,25441 53303,26791 53318,21589 "/>
   <polygon fill="#D7E7F7" fill-rule="nonzero" points="53318,21589 53577,21438 52739,20954 52479,21105 "/>
   <path fill="#025A82" fill-rule="nonzero" d="M45523 16703l1 -552 976 563 -2 552 -975 -563zm-2225 -1285l2 -552 975 563 -1 552 -976 -563zm1031 595l1 -552 1139 658 -1 552 -1139 -658zm1192 1413l2 -661 975 563 -2 661 -975 -563zm-4 1446l2 -661 975 563 -2 661 -975 -563zm-2225 -1285l2 -661 975 563 -1 662 -976 -564zm4 -1446l2 -661 976 563 -2 661 -976 -563zm2223 2008l2 -661 975 563 -2 661 -975 -563zm-2225 -1285l2 -661 976 563 -2 661 -976 -563zm1033 -128l2 -661 1138 658 -1 661 -1139 -658zm-4 1446l2 -661 1138 658 -1 661 -1139 -658zm2 -723l2 -661 1138 658 -1 661 -1139 -658zm1190 2134l2 -659 975 563 -2 660 0 63 -2 622 -975 -563 1 -622 1 -64zm-2225 -1284l2 -660 975 563 -1 660 -1 64 -1 621 -976 -563 2 -622 0 -63zm1031 595l2 -660 1138 658 -1 660 -1 63 -1 622 -1139 -658 1 -622 1 -63zm2234 -2220l-3310 -1912 -12 4254 3310 1911 12 -4253z"/>
  </g>
 </g>
</svg>
