<?xml version="1.0" encoding="UTF-8"?>
<!DOCTYPE svg PUBLIC "-//W3C//DTD SVG 1.1//EN" "http://www.w3.org/Graphics/SVG/1.1/DTD/svg11.dtd">
<!-- Creator: CorelDRAW 2018 (64-Bit) -->
<svg xmlns="http://www.w3.org/2000/svg" xml:space="preserve" width="400px" height="453px" version="1.1" style="shape-rendering:geometricPrecision; text-rendering:geometricPrecision; image-rendering:optimizeQuality; fill-rule:evenodd; clip-rule:evenodd"
viewBox="0 0 37786 42763"
 xmlns:xlink="http://www.w3.org/1999/xlink">
 <defs>
  <style type="text/css">
   <![CDATA[
    .fil18 {fill:#1195A8}
    .fil19 {fill:#16A8C2}
    .fil20 {fill:#21B5CF}
    .fil36 {fill:#26C7E3}
    .fil21 {fill:#29BFD9}
    .fil37 {fill:#85EDFF}
    .fil33 {fill:#8A8A8A}
    .fil34 {fill:#BDBDBD}
    .fil38 {fill:#D07400}
    .fil23 {fill:#D4A413}
    .fil17 {fill:#E0E0E2}
    .fil10 {fill:#E74B23}
    .fil13 {fill:#E8562A}
    .fil12 {fill:#EC6A43}
    .fil24 {fill:#F0B400}
    .fil39 {fill:#F18700}
    .fil15 {fill:#F18A67}
    .fil11 {fill:#F76539}
    .fil14 {fill:#FA7850}
    .fil35 {fill:#FEFEFE}
    .fil40 {fill:#FF9911}
    .fil25 {fill:#FFC107}
    .fil26 {fill:#FFCC33}
    .fil16 {fill:white}
    .fil4 {fill:#455A64;fill-rule:nonzero}
    .fil6 {fill:#52B3AC;fill-rule:nonzero}
    .fil7 {fill:#607D8B;fill-rule:nonzero}
    .fil3 {fill:#6F98AB;fill-rule:nonzero}
    .fil29 {fill:#757575;fill-rule:nonzero}
    .fil28 {fill:#8A8A8A;fill-rule:nonzero}
    .fil8 {fill:#9AAAB4;fill-rule:nonzero}
    .fil1 {fill:#9DAEB7;fill-rule:nonzero}
    .fil5 {fill:#A9D9D6;fill-rule:nonzero}
    .fil0 {fill:#B7C5CC;fill-rule:nonzero}
    .fil2 {fill:#BCC6CD;fill-rule:nonzero}
    .fil27 {fill:#BDBDBD;fill-rule:nonzero}
    .fil9 {fill:#D8DFE2;fill-rule:nonzero}
    .fil32 {fill:#E74B23;fill-rule:nonzero}
    .fil31 {fill:#EC6A43;fill-rule:nonzero}
    .fil30 {fill:#F18A67;fill-rule:nonzero}
    .fil22 {fill:#FEFEFE;fill-rule:nonzero}
   ]]>
  </style>
 </defs>
 <g id="Слой_x0020_1">
  <metadata id="CorelCorpID_0Corel-Layer"/>
  <g id="_1652218083584">
   <polygon class="fil0" points="12195,21615 12142,40491 0,33481 54,14605 "/>
   <polygon class="fil1" points="11301,25129 11307,22969 932,16979 926,19139 "/>
   <polygon class="fil1" points="11301,38804 11307,32165 932,26175 926,32814 "/>
   <path class="fil1" d="M6099 23363c1134,655 2053,2247 2050,3550 -4,1302 -930,1830 -2063,1176 -1134,-655 -2054,-2248 -2050,-3551 4,-1303 929,-1830 2063,-1175z"/>
   <polygon class="fil2" points="6277,24978 6276,25621 6835,25944 6834,26364 6274,26041 6272,26684 5907,26474 5909,25830 5349,25507 5350,25087 5910,25410 5912,24767 "/>
   <polygon class="fil2" points="3477,28864 3470,30586 1973,29719 1979,27997 "/>
   <polygon class="fil2" points="5738,30169 5731,31891 4234,31024 4241,29302 "/>
   <polygon class="fil2" points="7999,31475 7993,33196 6495,32330 6502,30608 "/>
   <polygon class="fil2" points="3477,31346 3470,33068 1973,32201 1979,30479 "/>
   <polygon class="fil2" points="5738,32640 5731,34362 4234,33495 4241,31774 "/>
   <polygon class="fil2" points="10261,35260 10254,36982 8756,36115 8763,34393 "/>
   <polygon class="fil2" points="10261,32780 10254,34502 8756,33635 8763,31913 "/>
   <polygon class="fil2" points="7999,33967 7993,35688 6495,34822 6502,33100 "/>
  </g>
  <g id="_1652218097120">
   <polygon class="fil0" points="37786,7010 37722,29657 25580,22647 25644,0 "/>
   <polygon class="fil1" points="36892,27585 36898,25425 26523,19435 26516,21595 "/>
   <polygon class="fil1" points="36892,10525 36898,8365 26523,2374 26516,4534 "/>
   <polygon class="fil1" points="36892,24199 36898,17561 26523,11570 26516,18209 "/>
   <path class="fil1" d="M31690 8758c1133,655 2053,2247 2049,3550 -4,1303 -929,1830 -2063,1176 -1134,-655 -2053,-2248 -2049,-3551 3,-1302 929,-1830 2063,-1175z"/>
   <path class="fil2" d="M31691 9712c292,169 529,580 528,916 -2,337 -241,471 -533,302 -293,-169 -528,-578 -527,-915 2,-336 239,-472 532,-303z"/>
   <path class="fil2" d="M32185 11108c240,139 435,478 434,754l-3 740 -322 -186 2 -412c0,-30 -21,-67 -48,-82 -25,-15 -47,-3 -47,27l-2 412 -1035 -599 2 -412c0,-31 -22,-67 -48,-82 -26,-15 -47,-4 -47,27l-2 412 -322 -187 3 -741c1,-275 197,-387 437,-248l11 6c116,227 291,430 488,544 196,113 371,113 490,22l9 5z"/>
   <polygon class="fil2" points="28761,14120 28754,15842 27257,14975 27263,13254 "/>
   <polygon class="fil2" points="31031,15415 31024,17137 29526,16270 29533,14548 "/>
   <polygon class="fil2" points="33300,16709 33293,18431 31796,17564 31803,15842 "/>
   <polygon class="fil2" points="28761,16603 28754,18325 27257,17458 27263,15736 "/>
   <polygon class="fil2" points="31031,17897 31024,19619 29526,18752 29533,17030 "/>
   <polygon class="fil2" points="33300,19192 33293,20913 31796,20047 31803,18325 "/>
   <polygon class="fil2" points="35524,17897 35517,22168 34020,21301 34026,17030 "/>
  </g>
  <polygon class="fil3" points="27304,11166 28509,10465 28422,41262 27216,41962 "/>
  <polygon class="fil3" points="12170,1127 13375,427 27382,8514 26177,9214 "/>
  <path class="fil4" d="M26177 9214c624,361 1129,1235 1127,1952l-88 30796c-2,717 -510,1007 -1134,646l-14007 -8086c-624,-361 -1129,-1235 -1127,-1952l88 -30796c2,-718 510,-1007 1134,-647l14007 8087z"/>
  <polygon class="fil5" points="25945,11840 25872,37354 12194,29457 12267,3943 "/>
  <polygon class="fil6" points="24938,15150 24945,12716 13256,5968 13249,8401 "/>
  <path class="fil7" d="M21795 7828c122,70 220,241 220,381 -1,140 -100,196 -221,126l-4753 -2744c-122,-71 -221,-241 -221,-381 1,-140 100,-197 222,-126l4753 2744z"/>
  <path class="fil3" d="M18010 34049c672,388 1215,1328 1212,2099 -2,772 -548,1084 -1220,696 -671,-388 -1214,-1328 -1212,-2100 2,-772 548,-1083 1220,-695z"/>
  <g id="_1652218106688">
   <path class="fil8" d="M17142 33966c51,-30 92,-47 169,-68 -190,178 -226,378 -227,679 -2,772 541,1712 1213,2100l-293 170c-672,-388 -1215,-1328 -1212,-2100 -5,-377 127,-651 350,-781z"/>
   <path class="fil8" d="M18844 36942c-204,107 -502,100 -840,-95l293 -170c261,150 502,195 701,149 -63,62 -103,89 -154,116z"/>
  </g>
  <path class="fil3" d="M28092 41987l-1205 700c202,-118 328,-369 329,-725l1206 -700c-1,356 -127,607 -330,725z"/>
  <path class="fil3" d="M26177 9214l1205 -700c624,360 1129,1234 1127,1952l-1205 700c2,-717 -503,-1591 -1127,-1952z"/>
  <path class="fil3" d="M11365 1048l1206 -700c205,-119 490,-103 804,79l-1205 700c-314,-181 -599,-198 -805,-79z"/>
  <polygon class="fil9" points="20247,11904 20023,11775 20023,10696 19694,10618 19694,10429 20218,10539 20247,10556 "/>
  <path id="1" class="fil9" d="M21617 12695l-904 -522 0 -154 448 -230c65,-35 111,-69 138,-101 28,-33 41,-73 41,-122 0,-64 -18,-126 -54,-186 -36,-61 -84,-108 -145,-144 -73,-42 -129,-52 -169,-31 -40,22 -60,71 -60,147l-224 -129c0,-82 18,-145 55,-189 38,-44 91,-64 160,-60 69,3 149,31 240,84 130,75 233,167 309,276 75,110 113,222 113,338 0,67 -19,126 -57,178 -38,52 -100,100 -186,143l-329 162 624 360 0 180z"/>
  <path id="2" class="fil9" d="M21939 12644c42,24 74,55 96,91 23,37 35,73 35,109 0,35 -12,57 -35,67 -22,10 -54,3 -96,-21 -40,-23 -72,-53 -96,-89 -23,-36 -35,-72 -35,-108 0,-35 12,-58 35,-69 22,-11 54,-4 96,20zm0 -784c42,24 74,54 96,91 23,37 35,73 35,108 0,35 -12,58 -35,67 -22,10 -54,4 -96,-21 -40,-23 -72,-53 -96,-89 -23,-36 -35,-72 -35,-107 0,-36 12,-59 35,-70 22,-10 54,-3 96,21z"/>
  <path id="3" class="fil9" d="M22549 12458l137 79c69,39 123,52 163,41 41,-12 61,-52 61,-118 0,-64 -17,-123 -51,-178 -33,-55 -84,-102 -153,-142 -61,-35 -110,-46 -149,-34 -39,13 -58,47 -58,103l-224 -130c0,-69 18,-121 55,-156 36,-36 87,-50 153,-44 65,6 139,33 220,80 134,77 240,172 316,283 77,112 115,228 115,348 0,60 -19,106 -57,137 -39,31 -89,42 -149,34 73,68 129,141 168,217 38,76 57,152 57,227 0,121 -41,193 -124,217 -82,24 -191,-3 -326,-81 -129,-75 -235,-171 -318,-287 -82,-117 -123,-233 -123,-347l224 129c0,60 20,119 60,179 39,60 93,109 160,148 69,40 124,53 164,39 40,-14 60,-55 60,-126 0,-70 -21,-137 -63,-199 -41,-63 -104,-118 -186,-165l-132 -77 0 -177z"/>
  <path id="4" class="fil9" d="M24240 13643c0,194 -36,319 -108,375 -72,57 -182,42 -330,-43 -146,-84 -255,-195 -329,-333 -73,-138 -111,-302 -113,-491l0 -233c0,-193 36,-317 109,-372 72,-55 182,-40 331,46 147,85 257,195 329,331 72,136 110,299 111,488l0 232zm-224 -381c0,-126 -17,-229 -52,-307 -34,-79 -89,-140 -164,-184 -73,-42 -127,-45 -162,-9 -34,36 -52,112 -54,230l0 304c0,126 17,230 53,312 35,81 90,144 165,187 72,42 125,44 159,7 35,-37 53,-115 55,-236l0 -304z"/>
  <g id="_1652218109056">
   <path class="fil10" d="M16358 21047l-1993 -1151c-126,-73 -240,-79 -323,-31l-562 327c0,-1 0,-1 0,-1 -81,47 -132,148 -133,291l-6 2291c-1,288 201,638 452,783l1993 1151c130,74 247,79 330,27 -3,1 -5,3 -7,4l562 -327c82,-47 132,-148 133,-291l6 -2290c1,-288 -201,-638 -452,-783z"/>
   <path class="fil11" d="M13480 20192l562 -327c83,-48 197,-42 323,31l-563 327c-126,-73 -240,-79 -322,-31z"/>
   <polygon class="fil12" points="16247,22157 16810,21830 16804,24120 16241,24448 "/>
   <path class="fil13" d="M16671 24411l-562 327c81,-47 131,-148 132,-290l563 -328c-1,143 -51,244 -133,291z"/>
   <polygon class="fil14" points="13802,20223 14365,19896 16358,21047 15796,21374 "/>
   <path class="fil15" d="M15796 21374l562 -327c251,145 453,495 452,783l-563 327c1,-288 -201,-638 -451,-783z"/>
   <polygon class="fil16" points="14270,22956 14274,21516 15477,22934 "/>
   <polygon class="fil17" points="14274,21516 15388,22936 15477,22934 "/>
  </g>
  <g id="_1652218110464">
   <path class="fil18" d="M16358 26536l-1993 -1151c-126,-73 -240,-79 -323,-32l-562 327c0,0 0,0 0,0 -81,47 -132,148 -133,291l-6 2291c-1,288 201,638 452,782l1993 1151c130,75 247,80 330,28 -3,1 -5,3 -7,4l562 -327c82,-47 132,-148 133,-291l6 -2291c1,-287 -201,-637 -452,-782z"/>
   <path class="fil19" d="M13480 25680l562 -327c83,-47 197,-41 323,32l-563 327c-126,-73 -240,-79 -322,-32z"/>
   <polygon class="fil20" points="16247,27645 16810,27318 16804,29609 16241,29936 "/>
   <path class="fil19" d="M16671 29900l-562 327c81,-47 131,-148 132,-291l563 -327c-1,143 -51,244 -133,291z"/>
   <polygon class="fil20" points="13802,25712 14365,25385 16358,26536 15796,26863 "/>
   <path class="fil21" d="M15796 26863l562 -327c251,145 453,495 452,782l-563 327c1,-287 -201,-637 -451,-782z"/>
   <path class="fil22" d="M14693 27931c159,92 289,18 290,-165 0,-183 -129,-406 -288,-498 -160,-92 -289,-19 -290,165 0,183 129,406 288,498zm569 27c-1,443 -544,1094 -572,1128 -29,-67 -566,-1341 -564,-1784 1,-443 256,-585 570,-404 314,181 567,617 566,1060z"/>
  </g>
  <g id="_1652218115744">
   <path class="fil23" d="M23410 16611l-1994 -1151c-126,-73 -240,-79 -323,-32l-562 327c0,0 0,0 0,0 -81,47 -132,148 -133,291l-6 2291c-1,288 201,638 452,782l1993 1151c130,75 247,80 330,28 -3,1 -5,3 -7,4l562 -327c82,-47 132,-148 133,-291l6 -2291c1,-287 -201,-637 -451,-782z"/>
   <path class="fil24" d="M20531 15755l562 -327c83,-47 197,-41 323,32l-563 327c-126,-73 -240,-79 -322,-32z"/>
   <polygon class="fil25" points="23298,17720 23861,17393 23855,19684 23292,20011 "/>
   <path class="fil24" d="M23723 19975l-563 327c81,-47 132,-148 132,-291l563 -327c-1,143 -51,244 -132,291z"/>
   <polygon class="fil25" points="20853,15787 21416,15460 23410,16611 22847,16938 "/>
   <path class="fil26" d="M22847 16938l563 -327c250,145 452,495 451,782l-563 327c1,-287 -201,-637 -451,-782z"/>
   <path class="fil16" d="M21737 18410l-474 -749 -572 242 0 118 0 259c0,177 144,404 320,505l1618 935c176,101 320,41 320,-136l0 -259 0 -356 -536 -848 -676 289z"/>
   <circle class="fil16" transform="matrix(0.0842194 0.0486241 -0 0.0842194 21507.8 17261.5)" r="3085"/>
  </g>
  <g id="_1652218117568">
   <polygon class="fil27" points="32420,28884 32752,28692 32720,39780 32389,39973 "/>
   <polygon class="fil28" points="18332,20751 18664,20558 32752,28692 32420,28884 "/>
   <polygon class="fil29" points="32420,28884 32389,39973 18301,31839 18332,20751 "/>
   <polygon class="fil30" points="33414,37455 33641,37323 33635,39576 33408,39708 "/>
   <polygon class="fil31" points="17570,28307 17796,28175 33641,37323 33414,37455 "/>
   <polygon class="fil32" points="33414,37455 33408,39708 17563,30560 17570,28307 "/>
   <polygon class="fil22" points="25045,27767 26387,29297 25040,29275 "/>
   <path class="fil22" d="M25494 30731c934,539 1696,105 1699,-968 3,-1074 -754,-2385 -1688,-2925 -934,-539 -1696,-104 -1699,969 -3,1073 754,2385 1688,2924zm12 -4078c1023,591 1852,2027 1849,3203 -4,1175 -838,1651 -1861,1061 -1023,-591 -1853,-2028 -1849,-3203 3,-1176 838,-1651 1861,-1061z"/>
   <polygon class="fil22" points="18668,29421 19505,30425 18665,30460 "/>
   <path class="fil22" d="M32135 38101l2 -569 -1130 -652 -1 569 1129 652zm-1674 -1669l1828 1055 -2 835 -1829 -1056 3 -834z"/>
   <polygon class="fil22" points="20388,30554 20385,31593 20189,31480 20192,30441 "/>
   <polygon class="fil22" points="20908,30854 20905,31893 20709,31780 20712,30741 "/>
   <polygon class="fil22" points="27991,35254 27990,35696 27720,35540 27722,35099 "/>
   <polygon class="fil22" points="28357,35050 28354,36278 27990,35696 27991,35254 "/>
   <path class="fil22" d="M29118 35381c317,549 315,1143 -3,1325l-60 -102c286,-163 288,-696 4,-1189l59 -34z"/>
   <path class="fil22" d="M28971 35465c115,198 177,410 177,597 -1,187 -64,326 -180,391l-59 -102c100,-57 155,-176 155,-337 1,-161 -54,-344 -152,-515l59 -34z"/>
   <path class="fil22" d="M28817 35552c153,264 152,549 -1,637l-59 -103c120,-68 121,-293 1,-500l59 -34z"/>
  </g>
  <g id="_1652218056576">
   <polygon class="fil33" points="7722,2097 7391,2290 17632,8203 17964,8010 "/>
   <polygon class="fil34" points="17632,8203 17964,8010 18003,19870 17671,20063 "/>
   <polygon class="fil17" points="17632,8203 17671,20063 7429,14150 7391,2290 "/>
   <g>
    <path class="fil35" d="M8072 11587l-28 -8359 8938 5160 20 6226 7 2133 -8937 -5160 0 0zm9560 -3384l-10241 -5913 38 11860 10242 5913 -39 -11860z"/>
   </g>
   <polygon class="fil36" points="16982,8388 8044,3228 8072,11587 17009,16747 8072,11587 17009,16747 "/>
   <path class="fil37" d="M10306 5206c-331,-191 -619,-177 -773,1 -92,-98 -195,-182 -305,-245 -390,-225 -704,-90 -703,301 1,391 318,891 708,1116l2141 1236c309,178 558,71 557,-238 -1,-310 -252,-706 -561,-884 -66,-39 -129,-63 -188,-76 -89,-454 -448,-963 -876,-1211z"/>
   <path class="fil37" d="M15257 10149c-328,-190 -601,-116 -667,154 -45,-42 -94,-79 -145,-108 -236,-137 -427,-55 -426,182 0,237 193,540 429,677l1640 947c299,172 540,69 539,-231 -1,-299 -244,-682 -543,-854 -83,-48 -162,-75 -233,-82 -119,-273 -340,-539 -594,-685z"/>
   <polygon class="fil38" points="8072,11587 8061,8447 10529,13006 "/>
   <polygon class="fil39" points="14849,10613 13279,11902 15380,15807 17009,16747 17002,14614 "/>
   <polygon class="fil40" points="11565,8717 8772,11991 15380,15807 "/>
   <path class="fil25" d="M13119 6850c-458,-265 -827,-106 -826,353 2,459 374,1046 831,1310 458,264 828,106 826,-353 -1,-460 -373,-1046 -831,-1310z"/>
  </g>
 </g>
</svg>
